<svg width="1em" height="1em" viewBox="0 0 79 79" fill="none" xmlns="http://www.w3.org/2000/svg">
<path d="M68.2969 52.7883V26.7883C68.2957 25.6484 67.9948 24.5289 67.4244 23.542C66.8539 22.5552 66.034 21.7357 65.0469 21.1658L42.2969 8.16576C41.3088 7.59526 40.1879 7.29492 39.0469 7.29492C37.9059 7.29492 36.785 7.59526 35.7969 8.16576L13.0469 21.1658C12.0597 21.7357 11.2398 22.5552 10.6694 23.542C10.0989 24.5289 9.79804 25.6484 9.79688 26.7883V52.7883C9.79804 53.9281 10.0989 55.0476 10.6694 56.0345C11.2398 57.0213 12.0597 57.8408 13.0469 58.4108L35.7969 71.4108C36.785 71.9813 37.9059 72.2816 39.0469 72.2816C40.1879 72.2816 41.3088 71.9813 42.2969 71.4108L65.0469 58.4108C66.034 57.8408 66.8539 57.0213 67.4244 56.0345C67.9948 55.0476 68.2957 53.9281 68.2969 52.7883Z" stroke="currentcolor" stroke-width="2" stroke-linecap="round" stroke-linejoin="round"/>
<path d="M10.6719 23.4102L39.0444 39.8227L67.4169 23.4102" stroke="currentcolor" stroke-width="2" stroke-linecap="round" stroke-linejoin="round"/>
<path d="M39.0469 72.5491V39.7891" stroke="currentcolor" stroke-width="2" stroke-linecap="round" stroke-linejoin="round"/>
</svg>
