<svg width="1em" height="1em" viewBox="0 0 42 42" fill="none" xmlns="http://www.w3.org/2000/svg">
<path d="M36.3516 28.1221V14.4555C36.3509 13.8563 36.1928 13.2679 35.8929 12.7491C35.5931 12.2304 35.1621 11.7996 34.6432 11.5001L22.6849 4.66673C22.1655 4.36686 21.5763 4.20898 20.9766 4.20898C20.3768 4.20898 19.7876 4.36686 19.2682 4.66673L7.3099 11.5001C6.79101 11.7996 6.36003 12.2304 6.06018 12.7491C5.76034 13.2679 5.60218 13.8563 5.60156 14.4555V28.1221C5.60218 28.7213 5.76034 29.3098 6.06018 29.8285C6.36003 30.3472 6.79101 30.778 7.3099 31.0776L19.2682 37.9109C19.7876 38.2108 20.3768 38.3686 20.9766 38.3686C21.5763 38.3686 22.1655 38.2108 22.6849 37.9109L34.6432 31.0776C35.1621 30.778 35.5931 30.3472 35.8929 29.8285C36.1928 29.3098 36.3509 28.7213 36.3516 28.1221Z" stroke="currentcolor" stroke-width="2" stroke-linecap="round" stroke-linejoin="round"/>
<path d="M6.0625 12.6787L20.9762 21.3058L35.89 12.6787" stroke="currentcolor" stroke-width="2" stroke-linecap="round" stroke-linejoin="round"/>
<path d="M20.9766 38.5091V21.2891" stroke="currentcolor" stroke-width="2" stroke-linecap="round" stroke-linejoin="round"/>
</svg>
