<svg width="1em" height="1em" viewBox="0 0 24 25" fill="none" xmlns="http://www.w3.org/2000/svg">
<path d="M12 9.88281C15.1347 9.88281 17.6758 12.4236 17.6758 15.5576C17.6758 18.6916 15.1347 21.2324 12 21.2324C8.86529 21.2324 6.32424 18.6916 6.32422 15.5576C6.32422 12.4236 8.86528 9.88281 12 9.88281Z" stroke="currentColor"/>
<path d="M15.2464 15.1094C15.2464 16.9042 13.7912 18.3592 11.9961 18.3592" stroke="currentColor"/>
<path d="M13.4585 10.4099V8.85132C13.4585 8.04784 12.8071 7.39648 12.0037 7.39648V7.39648C11.2002 7.39648 10.5488 8.04783 10.5488 8.85132V10.4099" stroke="currentColor"/>
<path d="M11.9961 7.39225V7.39225C11.9961 5.82808 11.1517 4.38575 9.78769 3.62014L9.4832 3.44922" stroke="currentColor"/>
</svg>
