<svg width="1em" height="1em" viewBox="0 0 25 25" fill="none" xmlns="http://www.w3.org/2000/svg">
<path d="M8.59782 4.84203C8.86204 4.76177 9.14131 4.91089 9.22157 5.17511L9.51215 6.13158C10.2972 5.6188 11.2357 5.32044 12.2432 5.32044C13.2506 5.32044 14.1891 5.6188 14.9742 6.13158L15.2648 5.17511C15.345 4.91089 15.6243 4.76177 15.8885 4.84203C16.1527 4.9223 16.3018 5.20157 16.2216 5.46578L15.8109 6.81746C16.6962 7.71911 17.2432 8.95618 17.2432 10.3204H17.7432C18.0193 10.3204 18.2432 10.0966 18.2432 9.82044V9.32044C18.2432 9.0443 18.467 8.82044 18.7432 8.82044C19.0193 8.82044 19.2432 9.0443 19.2432 9.32044V9.82044C19.2432 10.6489 18.5716 11.3204 17.7432 11.3204H17.2432V12.3204H18.7432C19.0193 12.3204 19.2432 12.5443 19.2432 12.8204C19.2432 13.0966 19.0193 13.3204 18.7432 13.3204H17.2432V14.3204H17.7432C18.5716 14.3204 19.2432 14.992 19.2432 15.8204V16.3204C19.2432 16.5966 19.0193 16.8204 18.7432 16.8204C18.467 16.8204 18.2432 16.5966 18.2432 16.3204V15.8204C18.2432 15.5443 18.0193 15.3204 17.7432 15.3204H17.2432C17.2432 18.0819 15.0046 20.3204 12.2432 20.3204C9.48174 20.3204 7.24316 18.0819 7.24316 15.3204H6.74316C6.46702 15.3204 6.24316 15.5443 6.24316 15.8204V16.3204C6.24316 16.5966 6.01931 16.8204 5.74316 16.8204C5.46702 16.8204 5.24316 16.5966 5.24316 16.3204V15.8204C5.24316 14.992 5.91474 14.3204 6.74316 14.3204H7.24316V13.3204H5.74316C5.46702 13.3204 5.24316 13.0966 5.24316 12.8204C5.24316 12.5443 5.46702 12.3204 5.74316 12.3204H7.24316V11.3204H6.74316C5.91474 11.3204 5.24316 10.6489 5.24316 9.82044V9.32044C5.24316 9.0443 5.46702 8.82044 5.74316 8.82044C6.01931 8.82044 6.24316 9.0443 6.24316 9.32044V9.82044C6.24316 10.0966 6.46702 10.3204 6.74316 10.3204H7.24316C7.24316 8.95618 7.79009 7.71911 8.67539 6.81746L8.26475 5.46578C8.18448 5.20157 8.33361 4.9223 8.59782 4.84203ZM8.24316 11.3204V15.3204C8.24316 17.3603 9.77001 19.0434 11.7432 19.2895V11.3204H8.24316ZM12.7432 11.3204V19.2895C14.7163 19.0434 16.2432 17.3603 16.2432 15.3204V11.3204H12.7432ZM16.2432 10.3204C16.2432 9.13583 15.7288 8.072 14.9097 7.33885C14.2017 6.70517 13.268 6.32044 12.2432 6.32044C11.2184 6.32044 10.2846 6.70517 9.57662 7.33885C8.75749 8.072 8.24316 9.13583 8.24316 10.3204H16.2432Z" fill="currentColor"/>
</svg>
