<svg width="1em" height="1em" viewBox="0 0 24 24" fill="none" xmlns="http://www.w3.org/2000/svg">
<path d="M18 5C19.1046 5 20 5.89543 20 7V17C20 18.1046 19.1046 19 18 19H6C4.89543 19 4 18.1046 4 17V7C4 5.89543 4.89543 5 6 5H18ZM5 17C5 17.5523 5.44772 18 6 18H18C18.5523 18 19 17.5523 19 17V10H5V17ZM14.7539 12.0137L11.6289 15.6387L11.2451 16.083L10.8672 15.6348L8.86719 13.2598L9.63281 12.6152L11.2539 14.541L13.9961 11.3613L14.7539 12.0137ZM6 6C5.44772 6 5 6.44772 5 7V9H19V7C19 6.44772 18.5523 6 18 6H6ZM6.5 7C6.77614 7 7 7.22386 7 7.5C7 7.77614 6.77614 8 6.5 8C6.22386 8 6 7.77614 6 7.5C6 7.22386 6.22386 7 6.5 7ZM8 7C8.27614 7 8.5 7.22386 8.5 7.5C8.5 7.77614 8.27614 8 8 8C7.72386 8 7.5 7.77614 7.5 7.5C7.5 7.22386 7.72386 7 8 7ZM9.5 7C9.77614 7 10 7.22386 10 7.5C10 7.77614 9.77614 8 9.5 8C9.22386 8 9 7.77614 9 7.5C9 7.22386 9.22386 7 9.5 7Z" fill="currentColor"/>
</svg>
