<svg xmlns="http://www.w3.org/2000/svg" width="1em" height="1em" viewBox="0 0 14 15" fill="none">
<path fill-rule="evenodd" clip-rule="evenodd" d="M3.5 2.53906C3.5 1.57256 4.2835 0.789062 5.25 0.789062H12.25C13.2165 0.789062 14 1.57256 14 2.53906V9.53906C14 10.5056 13.2165 11.2891 12.25 11.2891H5.25C4.2835 11.2891 3.5 10.5056 3.5 9.53906V2.53906ZM5.25 1.66406C4.76675 1.66406 4.375 2.05581 4.375 2.53906V9.53906C4.375 10.0223 4.76675 10.4141 5.25 10.4141H12.25C12.7332 10.4141 13.125 10.0223 13.125 9.53906V2.53906C13.125 2.05581 12.7332 1.66406 12.25 1.66406H5.25ZM1.75 5.16406C1.26675 5.16406 0.875 5.55581 0.875 6.03906V13.0391C0.875 13.5223 1.26675 13.9141 1.75 13.9141H8.75C9.23325 13.9141 9.625 13.5223 9.625 13.0391V12.1641H10.5V13.0391C10.5 14.0056 9.7165 14.7891 8.75 14.7891H1.75C0.783502 14.7891 0 14.0056 0 13.0391V6.03906C0 5.07256 0.783502 4.28906 1.75 4.28906H2.625V5.16406H1.75Z" fill="currentcolor"/>
</svg>