<svg width="1em" height="1em" viewBox="0 0 16 17" fill="none" xmlns="http://www.w3.org/2000/svg">
<path d="M12.0052 3.45703H4.00521C3.26883 3.45703 2.67188 4.05398 2.67188 4.79036V12.7904C2.67188 13.5267 3.26883 14.1237 4.00521 14.1237H12.0052C12.7416 14.1237 13.3385 13.5267 13.3385 12.7904V4.79036C13.3385 4.05398 12.7416 3.45703 12.0052 3.45703Z" stroke="currentcolor" stroke-linecap="round" stroke-linejoin="round"/>
<path d="M10 6.78906H6V10.7891H10V6.78906Z" stroke="currentcolor" stroke-linecap="round" stroke-linejoin="round"/>
<path d="M6 1.45703V3.45703" stroke="currentcolor" stroke-linecap="round" stroke-linejoin="round"/>
<path d="M10 1.45703V3.45703" stroke="currentcolor" stroke-linecap="round" stroke-linejoin="round"/>
<path d="M6 14.1211V16.1211" stroke="currentcolor" stroke-linecap="round" stroke-linejoin="round"/>
<path d="M10 14.1211V16.1211" stroke="currentcolor" stroke-linecap="round" stroke-linejoin="round"/>
<path d="M13.3281 6.78906H15.3281" stroke="currentcolor" stroke-linecap="round" stroke-linejoin="round"/>
<path d="M13.3281 10.1211H15.3281" stroke="currentcolor" stroke-linecap="round" stroke-linejoin="round"/>
<path d="M0.671875 6.78906H2.67188" stroke="currentcolor" stroke-linecap="round" stroke-linejoin="round"/>
<path d="M0.671875 10.1211H2.67188" stroke="currentcolor" stroke-linecap="round" stroke-linejoin="round"/>
</svg>
