<svg width="1em" height="1em" viewBox="0 0 24 24" fill="none" xmlns="http://www.w3.org/2000/svg">
<path d="M19.3874 1.43945H5.94974C4.85028 1.43945 3.95898 2.33074 3.95898 3.4302V20.6004C3.95898 21.6999 4.85028 22.5912 5.94974 22.5912H16.65C17.7496 22.5912 18.6408 21.6999 18.6408 20.6004V7.0498" stroke="currentColor" />
<path d="M7.12158 9.73633H16.225" stroke="currentColor"/>
<path d="M11.6731 18.9956C12.2873 18.9956 12.7852 18.4977 12.7852 17.8836C12.7852 17.2694 12.2873 16.7715 11.6731 16.7715C11.0589 16.7715 10.561 17.2694 10.561 17.8836C10.561 18.4977 11.0589 18.9956 11.6731 18.9956Z" stroke="currentColor"/>
<path d="M7.12158 12.2207H16.225" stroke="currentColor"/>
<path d="M7.12158 14.7031H16.225" stroke="currentColor"/>
</svg>
