<svg viewBox="0 0 320 320" fill="none" xmlns="http://www.w3.org/2000/svg">
<path d="M0 55.0657C0 24.6538 24.6537 0 55.0656 0H264.67C295.082 0 319.736 24.6537 319.736 55.0656V264.67C319.736 295.082 295.082 319.736 264.67 319.736H55.0657C24.6538 319.736 0 295.082 0 264.67V55.0657Z" fill="#09090B"/>
<path d="M159.981 215L110.211 142.021L159.981 173.84L209.753 142.021L159.981 215Z" fill="#6EE7B7"/>
<path d="M209.753 131.737L159.981 163.56L110.211 131.737L159.981 45L209.753 131.737Z" fill="#6EE7B7"/>
<path d="M115.302 164.852H84.7879L139.155 244.574C139.166 244.59 139.177 244.605 139.188 244.621L154.444 222.252L115.302 164.852Z" fill="#6EE7B7"/>
<path d="M290.823 83.3008H260.28L240.771 111.91L159.982 230.371L144.771 252.676L159.982 274.953L271.284 111.91L290.823 83.3008Z" fill="#6EE7B7"/>
</svg>
