<svg width="21" height="34" viewBox="0 0 21 34" fill="none" xmlns="http://www.w3.org/2000/svg">
<path d="M19.5739 19.8011L10.9079 24.8743C10.8562 24.9045 10.8248 24.96 10.8248 25.0198L10.8248 32.0335C10.8248 32.1971 11.0339 32.2646 11.1295 32.1321L19.7955 20.0442C19.9015 19.8964 19.7309 19.7092 19.5739 19.8011Z" fill="#00DD58" stroke="#03181E" stroke-width="0.337484" stroke-linejoin="round"/>
<path d="M1.71758 19.8011C1.56059 19.7092 1.3899 19.8964 1.4959 20.0442L10.1609 32.1321C10.2564 32.2651 10.4666 32.1972 10.4666 32.0335L10.4666 25.0198C10.4666 24.96 10.4352 24.9045 10.3836 24.8743L1.71758 19.8011Z" fill="#5EF399" stroke="#03181E" stroke-width="0.337484" stroke-linejoin="round"/>
<path d="M11.0734 12.6041C10.962 12.5542 10.8363 12.6354 10.8361 12.7575L10.8361 22.192C10.8361 22.3214 10.9757 22.4027 11.088 22.3385L20.3263 17.0455C20.4458 16.9771 20.4374 16.8021 20.3117 16.7457L11.0734 12.6041Z" fill="#04B94C" stroke="#03181E" stroke-width="0.337484" stroke-linejoin="round"/>
<path d="M10.4666 12.7575C10.4664 12.6354 10.3407 12.5542 10.2293 12.6041L0.991013 16.7457C0.865329 16.8021 0.856852 16.9771 0.976364 17.0455L10.2146 22.3385C10.327 22.4028 10.4666 22.3215 10.4666 22.192L10.4666 12.7575Z" fill="#1EDC6A" stroke="#03181E" stroke-width="0.337484" stroke-linejoin="round"/>
<path d="M11.1476 1.27213C11.0582 1.1284 10.8363 1.1916 10.8361 1.361L10.8361 12.0182C10.8361 12.0846 10.8751 12.1454 10.9357 12.1725L20.0519 16.2594C20.2034 16.3272 20.351 16.1584 20.2638 16.0173L11.1476 1.27213Z" fill="#00DD58" stroke="#03181E" stroke-width="0.337484" stroke-linejoin="round"/>
<path d="M10.4666 1.361C10.4664 1.19158 10.2444 1.12831 10.1551 1.27213L1.03886 16.0173C0.951829 16.1584 1.09939 16.3271 1.25078 16.2594L10.367 12.1725C10.4276 12.1454 10.4666 12.0846 10.4666 12.0182L10.4666 1.361Z" fill="#5EF399" stroke="#03181E" stroke-width="0.337484" stroke-linejoin="round"/>
</svg>
