<svg viewBox="0 0 1066 247" fill="none" xmlns="http://www.w3.org/2000/svg">
<path d="M0.5 187V12H107.5L109.25 30.75H24.75V168.25H111L109.5 187H0.5ZM35.25 108V107.25L49.25 89.25H94V108H35.25ZM175.23 188.5C146.48 188.5 138.48 174.5 138.48 153.5V99L161.48 85.25H162.48V152.75C162.48 165 167.48 170.25 179.73 170.25C187.73 170.25 193.73 168.5 199.48 165.5H200.48L199.73 184C192.73 186.75 183.98 188.5 175.23 188.5ZM125.98 78V66.75L152.73 32.5H162.48V60H199.98V78H125.98ZM223.633 2H247.633V187H223.633V2ZM307.883 106.5C307.883 84.25 296.883 77.75 278.883 77.75C272.883 77.75 266.383 78.5 257.633 81V80.25L269.883 60.25C275.883 59.25 281.133 58.5 287.383 58.5C316.633 58.5 331.883 73.25 331.883 103.75V187H307.883V106.5ZM364.99 247V60H388.99V163.75C396.74 168.25 406.24 170.5 418.24 170.5C425.49 170.5 431.24 169.75 436.49 168.5L436.74 169.25L424.74 188C420.49 188.5 416.99 188.5 410.99 188.5C403.49 188.5 395.99 187.5 388.99 185.75V247H364.99ZM443.49 183.25C453.99 165.25 457.24 146.25 457.24 125.75C457.24 89 443.49 77.25 419.74 77.25C412.24 77.25 406.49 78.25 400.49 79.75L399.99 79L412.49 59.5C416.24 58.75 421.74 58.5 427.49 58.5C460.49 58.5 480.99 79.25 480.99 119.25C480.99 150 471.49 172.25 443.99 184L443.49 183.25ZM507.324 187V60H531.324V187H507.324ZM541.324 83.5V82.25L551.324 63.5C558.324 60.75 568.824 58.75 576.824 58.75H581.324V81.5C564.574 80.75 551.824 81.5 541.324 83.5ZM679.051 183.25C687.801 169 692.551 150.25 692.551 125.5C692.551 89.75 679.051 76.5 655.551 76.5C650.551 76.5 644.051 77.25 638.801 78.75L638.301 78L650.551 59C653.301 58.75 657.301 58.5 661.551 58.5C694.551 58.5 716.551 81.25 716.551 119.5C716.551 154.5 703.051 174.25 679.551 184L679.051 183.25ZM649.301 188.5C616.301 188.5 594.301 166 594.301 127.75C594.301 92.5 607.801 73 631.301 63L631.801 63.75C623.051 78.25 618.301 97 618.301 121.5C618.301 157.25 631.801 170.5 655.301 170.5C660.301 170.5 666.801 169.75 672.051 168.5L672.551 169L660.301 188C657.551 188.25 653.551 188.5 649.301 188.5ZM821.873 183.25C830.623 169 835.373 150.25 835.373 125.5C835.373 89.75 821.873 76.5 798.373 76.5C793.373 76.5 786.873 77.25 781.623 78.75L781.123 78L793.373 59C796.123 58.75 800.123 58.5 804.373 58.5C837.373 58.5 859.373 81.25 859.373 119.5C859.373 154.5 845.873 174.25 822.373 184L821.873 183.25ZM792.123 188.5C759.123 188.5 737.123 166 737.123 127.75C737.123 92.5 750.623 73 774.123 63L774.623 63.75C765.873 78.25 761.123 97 761.123 121.5C761.123 157.25 774.623 170.5 798.123 170.5C803.123 170.5 809.623 169.75 814.873 168.5L815.373 169L803.123 188C800.373 188.25 796.373 188.5 792.123 188.5ZM890.992 187V98L913.992 85H914.992V187H890.992ZM872.492 78V60H890.992V42.25C890.992 16.75 908.992 0.499987 935.242 0.499987C943.242 0.499987 950.742 0.999996 955.742 2L956.992 23.25H956.242C947.992 19.5 942.742 18.5 934.992 18.5C922.742 18.5 914.992 23.5 914.992 38.5V60H954.742V78H872.492ZM1038.24 183.75C1041.49 176.5 1043.49 167.25 1043.49 158.75C1043.49 146.5 1038.99 139.25 1023.49 135.5L1005.74 131.25C980.742 125.25 971.242 114.5 971.242 96.5C971.242 78.25 982.742 67.75 998.242 61.75L998.742 62.5C995.492 70.75 993.242 79.75 993.242 87.5C993.242 100.5 997.742 106.5 1014.49 110.5L1031.99 114.75C1056.49 120.75 1065.99 131.25 1065.99 150C1065.99 167.75 1054.74 179 1038.99 184.5L1038.24 183.75ZM1008.74 188.5C994.992 188.5 982.242 186 972.992 183L971.992 161H972.742C989.492 168.25 1001.99 170.5 1014.24 170.5C1020.99 170.5 1026.24 169.75 1031.49 168.75L1031.74 169.5L1019.99 188C1016.74 188.25 1013.24 188.5 1008.74 188.5ZM1061.49 85.5C1045.74 78.5 1033.74 76.5 1022.49 76.5C1015.49 76.5 1010.24 77.25 1005.49 78L1005.24 77.25L1016.74 59C1019.24 58.75 1022.99 58.5 1026.99 58.5C1040.49 58.5 1052.49 60.75 1061.49 63.5L1062.24 85.5H1061.49Z" fill="#6EE7B7"/>
</svg>
