<svg width="1em" height="1em" viewBox="0 0 24 24" fill="none" xmlns="http://www.w3.org/2000/svg">
<path d="M7.74653 18.661C7.74653 18.7559 7.64011 18.8318 7.50593 18.8318C7.35324 18.8461 7.24681 18.7701 7.24681 18.661C7.24681 18.5661 7.35324 18.4901 7.48742 18.4901C7.62623 18.4759 7.74653 18.5518 7.74653 18.661ZM6.30753 18.4474C6.27514 18.5423 6.36768 18.6515 6.50649 18.68C6.62679 18.7274 6.7656 18.68 6.79337 18.585C6.82113 18.4901 6.73322 18.381 6.59441 18.3382C6.4741 18.305 6.33992 18.3525 6.30753 18.4474ZM8.35267 18.3667C8.21849 18.3999 8.12595 18.4901 8.13983 18.5993C8.15371 18.6942 8.27401 18.7559 8.41282 18.7227C8.54701 18.6895 8.63955 18.5993 8.62566 18.5044C8.61178 18.4142 8.48685 18.3525 8.35267 18.3667ZM11.3972 0.179688C4.97958 0.179688 0.0703125 5.17732 0.0703125 11.7602C0.0703125 17.0236 3.29997 21.5276 7.91311 23.1128C8.50536 23.222 8.71358 22.847 8.71358 22.5385C8.71358 22.2443 8.6997 20.6211 8.6997 19.6244C8.6997 19.6244 5.46079 20.3363 4.78062 18.2101C4.78062 18.2101 4.25314 16.829 3.4943 16.473C3.4943 16.473 2.43472 15.7279 3.56834 15.7421C3.56834 15.7421 4.72046 15.8371 5.35436 16.9666C6.36768 18.7986 8.0658 18.2718 8.72746 17.9586C8.83388 17.1992 9.13464 16.6724 9.46778 16.3591C6.88128 16.0649 4.27164 15.6804 4.27164 11.1147C4.27164 9.80951 4.6233 9.15455 5.36362 8.31924C5.24332 8.01074 4.85002 6.73879 5.48392 5.09664C6.45097 4.78815 8.67656 6.37809 8.67656 6.37809C9.60197 6.11231 10.5968 5.97467 11.5823 5.97467C12.5679 5.97467 13.5627 6.11231 14.4881 6.37809C14.4881 6.37809 16.7137 4.7834 17.6807 5.09664C18.3146 6.74354 17.9213 8.01074 17.801 8.31924C18.5414 9.1593 18.9948 9.81426 18.9948 11.1147C18.9948 15.6947 16.2695 16.0601 13.683 16.3591C14.1087 16.7341 14.4696 17.446 14.4696 18.5613C14.4696 20.1607 14.4557 22.1399 14.4557 22.529C14.4557 22.8375 14.6685 23.2125 15.2562 23.1033C19.8832 21.5276 23.0203 17.0236 23.0203 11.7602C23.0203 5.17732 17.8149 0.179688 11.3972 0.179688ZM4.56777 16.549C4.50762 16.5964 4.5215 16.7056 4.60016 16.7958C4.67419 16.8717 4.78061 16.9049 4.84077 16.8432C4.90092 16.7958 4.88704 16.6866 4.80838 16.5964C4.73434 16.5205 4.62792 16.4873 4.56777 16.549ZM4.06805 16.1645C4.03567 16.2262 4.08194 16.3022 4.17448 16.3496C4.24851 16.3971 4.34105 16.3829 4.37344 16.3164C4.40583 16.2547 4.35956 16.1788 4.26702 16.1313C4.17448 16.1028 4.10044 16.1171 4.06805 16.1645ZM5.56721 17.8541C5.49318 17.9158 5.52094 18.0582 5.62736 18.1484C5.73378 18.2576 5.86796 18.2718 5.92811 18.1959C5.98827 18.1342 5.9605 17.9918 5.86796 17.9016C5.76617 17.7924 5.62736 17.7782 5.56721 17.8541ZM5.03973 17.1565C4.9657 17.2039 4.9657 17.3273 5.03973 17.4365C5.11376 17.5456 5.23869 17.5931 5.29884 17.5456C5.37287 17.4839 5.37287 17.3605 5.29884 17.2514C5.23406 17.1422 5.11376 17.0948 5.03973 17.1565Z" fill="currentcolor"/>
</svg>
