<svg width="1em" height="1em" viewBox="0 0 25 25" fill="none" xmlns="http://www.w3.org/2000/svg">
<path d="M12.2432 10.0703C13.6239 10.0703 14.7432 11.1896 14.7432 12.5703C14.7432 13.951 13.6239 15.0703 12.2432 15.0703C10.8625 15.0703 9.74316 13.951 9.74316 12.5703C9.74316 11.1896 10.8625 10.0703 12.2432 10.0703Z" stroke="currentColor"/>
<path d="M12.4932 18.8486C12.3578 18.9268 12.195 18.9365 12.0527 18.8779L11.9932 18.8486L6.93066 15.9258C6.77621 15.8365 6.68074 15.6716 6.68066 15.4932L6.68066 9.64746C6.68073 9.49127 6.7542 9.34579 6.87598 9.25195L6.93066 9.21484L11.9932 6.29199C12.1285 6.21385 12.2914 6.20409 12.4336 6.2627L12.4932 6.29199L17.5557 9.21484C17.7101 9.30417 17.8056 9.46903 17.8057 9.64746L17.8057 15.4932C17.8056 15.6494 17.7321 15.7948 17.6104 15.8887L17.5557 15.9258L12.4932 18.8486Z" stroke="currentColor"/>
</svg>
