<svg xmlns="http://www.w3.org/2000/svg" width="1em" height="1em" viewBox="0 0 12 13" fill="none">
<path d="M6 12.0391C3.10051 12.0391 0.75 9.68856 0.75 6.78906C0.75 3.88957 3.10051 1.53906 6 1.53906C8.8995 1.53906 11.25 3.88957 11.25 6.78906C11.25 9.68856 8.8995 12.0391 6 12.0391ZM6 12.7891C9.31371 12.7891 12 10.1028 12 6.78906C12 3.47535 9.31371 0.789062 6 0.789062C2.68629 0.789062 0 3.47535 0 6.78906C0 10.1028 2.68629 12.7891 6 12.7891Z" fill="currentcolor"/>
<path d="M6.69803 5.72998L4.97977 5.94531L4.91824 6.23096L5.25662 6.29248C5.47635 6.34521 5.52029 6.42432 5.47195 6.64404L4.91824 9.24561C4.77322 9.91797 4.99734 10.2344 5.52469 10.2344C5.93338 10.2344 6.40799 10.0454 6.62332 9.78613L6.68924 9.47412C6.53982 9.60596 6.3201 9.65869 6.17508 9.65869C5.96854 9.65869 5.89383 9.51367 5.94656 9.25879L6.69803 5.72998Z" fill="currentcolor"/>
<path d="M6.75 4.16406C6.75 4.57828 6.41421 4.91406 6 4.91406C5.58579 4.91406 5.25 4.57828 5.25 4.16406C5.25 3.74985 5.58579 3.41406 6 3.41406C6.41421 3.41406 6.75 3.74985 6.75 4.16406Z" fill="currentcolor"/>
</svg>