<svg width="1em" height="1em" viewBox="0 0 29 29" fill="none" xmlns="http://www.w3.org/2000/svg">
<path d="M23.4263 1.73828H7.18919C5.86067 1.73828 4.78369 2.81525 4.78369 4.14377V24.8911C4.78369 26.2196 5.86067 27.2966 7.18919 27.2966H20.1187C21.4473 27.2966 22.5242 26.2197 22.5242 24.8911V8.51745" stroke="currentColor" stroke-width="2.40549"/>
<path d="M8.60498 11.7656H19.605" stroke="currentColor"/>
<path d="M14.105 22.9531C14.8471 22.9531 15.4487 22.3515 15.4487 21.6094C15.4487 20.8672 14.8471 20.2656 14.105 20.2656C13.3628 20.2656 12.7612 20.8672 12.7612 21.6094C12.7612 22.3515 13.3628 22.9531 14.105 22.9531Z" stroke="currentColor"/>
<path d="M8.60498 14.7656H19.605" stroke="currentColor"/>
<path d="M8.60498 17.7656H19.605" stroke="currentColor"/>
</svg>
