<svg xmlns="http://www.w3.org/2000/svg" width="1em" height="1em" viewBox="0 0 16 17" fill="none">
<path d="M1.32812 2.78906H5.32812C6.03537 2.78906 6.71365 3.07001 7.21374 3.57011C7.71384 4.07021 7.99479 4.74849 7.99479 5.45573V14.7891C7.99479 14.2586 7.78408 13.7499 7.40901 13.3748C7.03393 12.9998 6.52522 12.7891 5.99479 12.7891H1.32812V2.78906Z" stroke="currentcolor" stroke-linecap="round" stroke-linejoin="round"/>
<path d="M14.6667 2.78906H10.6667C9.95942 2.78906 9.28115 3.07001 8.78105 3.57011C8.28095 4.07021 8 4.74849 8 5.45573V14.7891C8 14.2586 8.21071 13.7499 8.58579 13.3748C8.96086 12.9998 9.46957 12.7891 10 12.7891H14.6667V2.78906Z" stroke="currentcolor" stroke-linecap="round" stroke-linejoin="round"/>
</svg>