<svg width="0.2866666667em" height="0.3933333333em" viewBox="0 0 43 59" fill="none" xmlns="http://www.w3.org/2000/svg">
<path id="pizza-slice-shape" d="M21.6064 0.488281C16.7447 0.488278 11.9076 0.982891 7.16838 1.95754C2.10217 2.99944 -0.775329 8.7957 1.57739 14.4773L19.3586 57.4169C20.1862 59.4155 23.017 59.4156 23.8449 57.4172L41.633 14.4779C43.9867 8.79605 41.1092 2.99902 36.0425 1.95716C31.3039 0.982767 26.4675 0.488276 21.6064 0.488281Z" fill="currentColor"/>
<path id="pizza-slice-linear-gradient" d="M21.6064 0.488281C16.7447 0.488278 11.9076 0.982891 7.16838 1.95754C2.10217 2.99944 -0.775329 8.7957 1.57739 14.4773L19.3586 57.4169C20.1862 59.4155 23.017 59.4156 23.8449 57.4172L41.633 14.4779C43.9867 8.79605 41.1092 2.99902 36.0425 1.95716C31.3039 0.982767 26.4675 0.488276 21.6064 0.488281Z" fill="url(#paint0_linear_7353_67927)" fill-opacity="50%" />
<defs>
<linearGradient id="paint0_linear_7353_67927" x1="21.6055" y1="0.488281" x2="21.6055" y2="58.9159" gradientUnits="userSpaceOnUse">
<stop stop-color="white" stop-opacity="0"/>
<stop offset="1" stop-color="white"/>
</linearGradient>
</defs>
</svg>