<svg width="1.5em" height="1em" viewBox="0 0 40 27" fill="none" xmlns="http://www.w3.org/2000/svg">
<path d="M1 10.9014H0V12.9014H1V10.9014ZM34.9663 10.8548C35.2722 10.395 35.1475 9.77419 34.6877 9.46824C34.2279 9.1623 33.6072 9.28701 33.3012 9.74681L34.9663 10.8548ZM27.3872 20.4399L28.2197 20.9939L27.3872 20.4399ZM20.9825 12.0362L21.8019 11.463L20.9825 12.0362ZM1 12.9014H20.7238V10.9014H1V12.9014ZM20.1631 12.6094L26.0462 21.0192L27.685 19.8728L21.8019 11.463L20.1631 12.6094ZM28.2197 20.9939L34.9663 10.8548L33.3012 9.74681L26.5546 19.8859L28.2197 20.9939ZM26.0462 21.0192C26.5774 21.7786 27.7063 21.7654 28.2197 20.9939L26.5546 19.8859C26.8216 19.4847 27.4087 19.4778 27.685 19.8728L26.0462 21.0192ZM20.7238 12.9014C20.5004 12.9014 20.2911 12.7924 20.1631 12.6094L21.8019 11.463C21.5557 11.1111 21.1533 10.9014 20.7238 10.9014V12.9014Z" fill="url(#paint0_linear_2199_14026)" class="check"/>
<path d="M38.2266 13.7891C38.2266 20.4165 32.854 25.7891 26.2266 25.7891C19.5991 25.7891 14.2266 20.4165 14.2266 13.7891C14.2266 7.16165 19.5991 1.78906 26.2266 1.78906C32.854 1.78906 38.2266 7.16165 38.2266 13.7891Z" stroke="currentcolor" stroke-width="2" class="circle" />
<defs>
<linearGradient id="paint0_linear_2199_14026" x1="1" y1="10.3008" x2="16.4064" y2="10.3008" gradientUnits="userSpaceOnUse">
<stop stop-color="currentcolor" stop-opacity="0"/>
<stop offset="0.7" stop-color="currentcolor"/>
</linearGradient>
</defs>
</svg>
