<svg width="55" height="40" viewBox="0 0 55 40" fill="none" xmlns="http://www.w3.org/2000/svg">
<path d="M9.6196 5.18635V5.14428C9.6196 2.3323 8.15067 0.849126 5.37183 0.849126H0.941175C0.739089 0.849126 0.575101 1.01278 0.575101 1.21354V14.6705C0.575101 14.8716 0.73942 15.0356 0.941175 15.0356H1.93173C2.13348 15.0356 2.2978 14.8716 2.2978 14.6705V9.48151H4.17024L7.51261 14.8626C7.57821 14.9703 7.69581 15.0359 7.82237 15.0359H8.93019C9.06138 15.0359 9.18363 14.9657 9.24922 14.8484C9.28109 14.7917 9.29704 14.7274 9.29541 14.6624C9.29378 14.5974 9.27462 14.534 9.23995 14.479L6.10463 9.43513C8.40444 9.19196 9.61994 7.72734 9.61994 5.18669M2.2978 2.46316H5.37216C6.98652 2.46316 7.92076 2.90311 7.92076 5.18635C7.92076 7.46959 6.98652 7.84859 5.37183 7.84859H2.29747L2.2978 2.46316ZM24.0807 0.849126H15.8667C15.665 0.849126 15.5006 1.01278 15.5006 1.21387V2.09841C15.5006 2.29951 15.665 2.46316 15.867 2.46316H19.115V13.4215H15.8667C15.665 13.4215 15.5006 13.5852 15.5006 13.7866V14.6708C15.5006 14.8719 15.665 15.0359 15.867 15.0359H24.0807C24.2828 15.0359 24.4467 14.8719 24.4467 14.6708V13.7859C24.4467 13.5848 24.2824 13.4212 24.0807 13.4212H20.8142V2.46316H24.0807C24.2828 2.46316 24.4467 2.29951 24.4467 2.09841V1.21354C24.4467 1.01245 24.2824 0.849126 24.0807 0.849126ZM35.4485 7.08563L34.8055 6.88454C33.3273 6.41643 31.9286 5.97681 31.9286 4.34356C31.9286 2.94949 32.8061 2.24319 34.5381 2.24319H34.6415C36.6597 2.24319 37.5747 3.13203 37.6125 5.1254C37.6125 5.32152 37.7814 5.48551 37.9739 5.48551H38.9452C39.044 5.48551 39.1377 5.44807 39.2083 5.37784C39.2429 5.34391 39.27 5.30307 39.2877 5.25797C39.3055 5.21287 39.3135 5.16454 39.3113 5.11612C39.26 2.23822 37.6029 0.656979 34.6415 0.656979H34.5381C31.8862 0.656979 30.2294 2.06992 30.2059 4.34853C30.2059 7.15123 32.6465 7.93704 34.2612 8.45186L34.4444 8.51282C34.6084 8.56417 34.7727 8.61552 34.9416 8.6672C36.4811 9.14426 37.9315 9.59348 37.9315 11.3433C37.9315 12.8547 36.9178 13.622 34.9181 13.622H34.8197C32.5573 13.622 31.6234 12.7798 31.5857 10.7212C31.5857 10.5247 31.4167 10.3607 31.2246 10.3607H30.2529C30.1548 10.3624 30.0609 10.4008 29.9899 10.4684C29.9555 10.5026 29.9287 10.5436 29.9109 10.5887C29.8932 10.6338 29.885 10.682 29.8868 10.7305C29.9382 13.6316 31.689 15.2317 34.8197 15.2317H34.9181C37.8235 15.2317 39.6307 13.7389 39.6307 11.339C39.6307 8.37699 37.1102 7.60045 35.4439 7.08563H35.4485ZM49.7734 2.24783H49.8532C51.9185 2.24783 52.815 3.24434 52.8478 5.58854C52.8478 5.78499 53.0121 5.94865 53.2092 5.94865H54.1809C54.2793 5.94865 54.3733 5.91121 54.4389 5.84098C54.5095 5.77075 54.5469 5.67732 54.5469 5.57926C54.4906 1.49448 51.9655 0.633789 49.8532 0.633789H49.7734C47.6333 0.633789 45.08 1.51336 45.08 5.71509V10.1179C45.08 14.3336 47.6333 15.2178 49.7734 15.2178H49.8532C51.9655 15.2178 54.4906 14.3571 54.5469 10.2534C54.5469 10.1553 54.5095 10.0616 54.4389 9.99169C54.4054 9.95734 54.3652 9.9301 54.3209 9.9116C54.2765 9.8931 54.2289 9.88372 54.1809 9.88402H53.2092C53.0121 9.88402 52.8478 10.0477 52.8478 10.2441C52.815 12.5976 51.9231 13.6034 49.8532 13.6034H49.7734C47.6472 13.6034 46.7789 12.593 46.7789 10.1179V5.6919C46.7789 3.24467 47.6472 2.24319 49.7734 2.24319V2.24783ZM9.71369 37.9104H2.50883L9.93433 26.9431C9.9764 26.8824 9.99529 26.8122 9.99529 26.7373V25.6984C9.99529 25.4973 9.83097 25.3337 9.62921 25.3337H1.29333C1.09125 25.3337 0.927261 25.4973 0.927261 25.6984V26.5876C0.927261 26.7887 1.09125 26.9527 1.29333 26.9527H8.05195L0.607899 37.9385C0.566814 37.9991 0.545519 38.071 0.546942 38.1442V39.1596C0.546942 39.3607 0.711261 39.5247 0.913016 39.5247H9.71369C9.91545 39.5247 10.0798 39.3607 10.0798 39.1596V38.2708C10.0798 38.0694 9.91545 37.9057 9.71369 37.9057V37.9104ZM24.0008 25.338H15.9465C15.7448 25.338 15.5805 25.5019 15.5805 25.7034V39.1596C15.5805 39.3607 15.7448 39.5247 15.9465 39.5247H24.0008C24.2029 39.5247 24.3669 39.3607 24.3669 39.1596V38.2708C24.3669 38.0694 24.2029 37.9057 24.0008 37.9057H17.2843V33.2034H22.4097C22.6117 33.2034 22.7757 33.0398 22.7757 32.8387V31.9495C22.7757 31.7484 22.6117 31.5847 22.4097 31.5847H17.2846V26.9434H24.0008C24.2029 26.9434 24.3669 26.7794 24.3669 26.5783V25.6891C24.3669 25.488 24.2029 25.324 24.0008 25.324V25.338ZM39.2504 29.6381C39.2504 26.8261 37.7814 25.3429 35.0026 25.3429H30.5719C30.3698 25.3429 30.2059 25.5066 30.2059 25.708V39.1643C30.2059 39.3657 30.3702 39.5294 30.5719 39.5294H31.5625C31.7642 39.5294 31.9286 39.3657 31.9286 39.1643V33.9753H33.8013L37.143 39.3561C37.2086 39.4638 37.3259 39.5294 37.4528 39.5294H38.5606C38.6918 39.5294 38.8141 39.4591 38.8797 39.3422C38.9116 39.2854 38.9276 39.2211 38.9259 39.156C38.9243 39.091 38.9051 39.0275 38.8704 38.9725L35.7351 33.9286C38.0349 33.6854 39.2504 32.2205 39.2504 29.6381ZM37.5515 29.6384V29.6805C37.5515 31.9077 36.6173 32.3427 35.0026 32.3427H31.9282V26.9573H35.0026C36.6173 26.9573 37.5515 27.3973 37.5515 29.6384ZM49.8532 25.1372H49.7734C47.6333 25.1372 45.08 26.0168 45.08 30.2182V34.626C45.08 38.8416 47.6333 39.7258 49.7734 39.7258H49.8532C51.9937 39.7258 54.5469 38.8416 54.5469 34.626V30.2185C54.5469 26.0168 51.9937 25.1372 49.8532 25.1372ZM52.8478 30.1996V34.626C52.8478 37.0682 51.9513 38.1114 49.8532 38.1114H49.7734C47.6472 38.1114 46.7789 37.101 46.7789 34.626V30.1996C46.7789 27.7527 47.6472 26.7512 49.7734 26.7512H49.8532C51.9513 26.7512 52.8478 27.7806 52.8478 30.1996Z" fill="currentcolor"/>
</svg>
