<svg width="127" height="25" viewBox="0 0 127 25" fill="none" xmlns="http://www.w3.org/2000/svg">
<g clip-path="url(#clip0_2199_11832)">
<path d="M19.4395 4.25977H34.3255L33.3235 8.21907H18.4375L19.4395 4.25977Z" fill="url(#paint0_linear_2199_11832)"/>
<path d="M1.54888 16.1387H16.4349L15.4307 20.1001H0.546875L1.54888 16.1387Z" fill="url(#paint1_linear_2199_11832)"/>
<path d="M8.67382 4.25911H19.4438L20.4458 0.299805H8.67382C7.82011 0.299805 7.00877 0.475032 6.27368 0.790024C4.13621 1.70162 2.64062 3.79809 2.64062 6.23877C2.64062 7.6385 3.13421 8.92558 3.95827 9.94146C5.06408 11.3057 6.76515 12.1798 8.67382 12.1798H17.4398L18.4418 8.2205H8.67382C7.56379 8.2205 6.66347 7.33393 6.66347 6.24084C6.66135 5.14568 7.56167 4.25911 8.67382 4.25911Z" fill="currentcolor"/>
<path d="M26.2017 20.1005H15.4317L14.4297 24.0598H26.2017C27.0554 24.0598 27.8667 23.8846 28.6019 23.5696C30.7393 22.6559 32.2349 20.5594 32.2349 18.1188C32.2349 16.719 31.7413 15.432 30.9173 14.4161C29.8115 13.0518 28.1103 12.1777 26.2017 12.1777H17.4357L16.4337 16.1391H26.2017C27.3117 16.1391 28.212 17.0257 28.212 18.1188C28.212 19.214 27.3117 20.1005 26.2017 20.1005Z" fill="currentcolor"/>
<path d="M51.9252 20.3216C50.6521 20.3216 49.5484 20.1213 48.6141 19.7207C47.6799 19.3202 46.9555 18.7257 46.4428 17.933C45.9281 17.1403 45.6632 16.1786 45.6484 15.0459H47.7181C47.7181 16.1327 48.11 16.9735 48.8917 17.5701C49.6734 18.1667 50.7072 18.4629 51.993 18.4629H52.2239C53.3127 18.4629 54.1622 18.223 54.7745 17.739C55.3867 17.255 55.6939 16.6439 55.6939 15.9054C55.6939 15.242 55.4756 14.7038 55.0371 14.2971C54.6008 13.8902 53.9292 13.5961 53.0268 13.4147L50.4529 12.8952C49.1501 12.6241 48.1566 12.1339 47.4766 11.4246C46.7945 10.7153 46.4534 9.75786 46.4534 8.55004C46.4534 7.71977 46.6907 6.96253 47.1652 6.27623C47.6397 5.58992 48.3027 5.04338 49.1544 4.6366C50.0059 4.22774 50.9973 4.02539 52.1307 4.02539C53.2937 4.02539 54.3105 4.22565 55.1769 4.62617C56.0413 5.02669 56.7255 5.59827 57.2212 6.34506C57.719 7.09396 57.9839 7.96383 58.0156 8.96094H55.9459C55.8845 8.02643 55.5117 7.27961 54.8317 6.72055C54.1495 6.1615 53.2874 5.88197 52.2451 5.88197H52.0163C51.3257 5.88197 50.7177 5.99461 50.1882 6.21991C49.6585 6.44728 49.2497 6.76227 48.9573 7.17114C48.665 7.57792 48.5209 8.03058 48.5209 8.52917C48.5209 9.14871 48.7286 9.65354 49.1417 10.0457C49.5547 10.4378 50.1373 10.7091 50.8872 10.8593L53.4611 11.3578C54.855 11.629 55.9206 12.1317 56.6577 12.864C57.3929 13.5961 57.7614 14.5808 57.7614 15.8178C57.7614 16.7377 57.5199 17.5367 57.0369 18.2167C56.5539 18.8968 55.8718 19.4162 54.9906 19.7792C54.1114 20.14 53.0882 20.3216 51.9252 20.3216Z" fill="currentcolor"/>
<path d="M63.4766 20.3208C62.6334 20.3208 61.9174 20.1456 61.3285 19.7993C60.7375 19.453 60.2926 18.9732 59.9939 18.362C59.6952 17.7508 59.5469 17.0457 59.5469 16.2447V8.77662H61.5001V15.792C61.5001 16.7578 61.7013 17.4817 62.1081 17.9657C62.5148 18.4496 63.1312 18.6895 63.9574 18.6895H64.165C64.6862 18.6895 65.1776 18.5352 65.6373 18.2243C66.097 17.9155 66.4719 17.4733 66.7622 16.8996C67.0524 16.326 67.1986 15.6543 67.1986 14.8846V8.77246H69.1517V20.0892H67.1986V17.9386C66.938 18.6478 66.4868 19.2214 65.8428 19.6574C65.1988 20.0997 64.4108 20.3208 63.4766 20.3208Z" fill="currentcolor"/>
<path d="M76.2061 20.3212C75.073 20.3212 74.0986 20.0646 73.2873 19.5515C72.4738 19.0383 71.8552 18.3374 71.4252 17.4466C70.9973 16.5559 70.7812 15.5525 70.7812 14.4365C70.7812 13.3205 70.9952 12.317 71.4252 11.4263C71.8531 10.5356 72.4738 9.83465 73.2873 9.32151C74.0986 8.80837 75.073 8.55176 76.2061 8.55176C77.0644 8.55176 77.8314 8.71028 78.5049 9.0274C79.1783 9.34445 79.7189 9.80131 80.1258 10.3958C80.5319 10.9924 80.774 11.6829 80.8497 12.4673H78.8969C78.7907 11.7893 78.5027 11.2386 78.0349 10.8151C77.5664 10.3938 76.9969 10.181 76.3212 10.181H76.1133C75.3782 10.181 74.7532 10.375 74.2406 10.7588C73.7258 11.1447 73.3466 11.6621 73.1009 12.3087C72.8572 12.9575 72.7344 13.6668 72.7344 14.4365C72.7344 15.6443 73.0246 16.6561 73.6093 17.4696C74.1897 18.2853 75.0263 18.692 76.1133 18.692H76.3212C76.9946 18.692 77.5619 18.4771 78.0223 18.0454C78.4819 17.6156 78.7722 17.069 78.8947 16.4057H80.8482C80.7101 17.6135 80.2252 18.5668 79.3885 19.2677C78.5554 19.9687 77.4943 20.3212 76.2061 20.3212Z" fill="currentcolor"/>
<path d="M87.0895 20.3222C85.9557 20.3222 84.9816 20.0656 84.17 19.5524C83.357 19.0393 82.7385 18.3384 82.3078 17.4476C81.8801 16.5569 81.6641 15.5535 81.6641 14.4375C81.6641 13.3214 81.8779 12.318 82.3078 11.4273C82.7362 10.5365 83.357 9.83563 84.17 9.32248C84.9816 8.80934 85.9557 8.55273 87.0895 8.55273C87.9471 8.55273 88.7141 8.71126 89.3875 9.02838C90.0617 9.34543 90.6015 9.80229 91.0084 10.3968C91.4153 10.9934 91.6566 11.6839 91.7331 12.4682H89.7796C89.6742 11.7903 89.3853 11.2395 88.9175 10.8161C88.449 10.3947 87.8795 10.1819 87.2039 10.1819H86.996C86.2609 10.1819 85.6364 10.3759 85.1234 10.7598C84.6088 11.1457 84.2294 11.6631 83.9836 12.3097C83.7401 12.9584 83.6176 13.6677 83.6176 14.4375C83.6176 15.6453 83.9072 16.657 84.4922 17.4706C85.0729 18.2862 85.9097 18.693 86.996 18.693H87.2039C87.8773 18.693 88.4453 18.4781 88.9049 18.0463C89.3645 17.6166 89.6549 17.07 89.7774 16.4067H91.7309C91.5928 17.6145 91.1079 18.5678 90.2711 19.2687C89.4366 19.9696 88.377 20.3222 87.0895 20.3222Z" fill="currentcolor"/>
<path d="M93.1172 6.56901V4.25977H95.3009V6.56901H93.1172ZM93.2315 20.0949V8.7781H95.1843V20.0949H93.2315Z" fill="currentcolor"/>
<path d="M97.3984 20.0939V8.77716H99.3512V10.4752C99.718 9.8869 100.22 9.41964 100.856 9.07126C101.491 8.72496 102.254 8.5498 103.143 8.5498C103.987 8.5498 104.715 8.71249 105.328 9.03792C105.939 9.36329 106.412 9.82646 106.742 10.4293C107.072 11.0321 107.236 11.7498 107.236 12.58V20.0939H105.283V13.0326C105.283 12.4131 105.194 11.8937 105.018 11.4702C104.842 11.0488 104.569 10.7276 104.203 10.5086C103.836 10.2916 103.376 10.1811 102.823 10.1811H102.639C102.01 10.1811 101.447 10.3396 100.951 10.6566C100.453 10.9738 100.063 11.4222 99.7789 12.0021C99.4953 12.5842 99.3534 13.2455 99.3534 13.9839V20.096H97.3984V20.0939Z" fill="currentcolor"/>
<path d="M114.16 20.3212C113.026 20.3212 112.052 20.0646 111.24 19.5515C110.427 19.0383 109.809 18.3374 109.378 17.4466C108.95 16.5559 108.734 15.5525 108.734 14.4365C108.734 13.3205 108.95 12.317 109.378 11.4263C109.807 10.5356 110.427 9.83465 111.24 9.32151C112.052 8.80837 113.026 8.55176 114.16 8.55176C115.017 8.55176 115.784 8.71028 116.458 9.0274C117.132 9.34445 117.672 9.80131 118.079 10.3958C118.486 10.9924 118.727 11.6829 118.803 12.4673H116.85C116.744 11.7893 116.456 11.2386 115.988 10.8151C115.519 10.3938 114.95 10.181 114.274 10.181H114.066C113.331 10.181 112.707 10.375 112.194 10.7588C111.679 11.1447 111.3 11.6621 111.054 12.3087C110.81 12.9575 110.688 13.6668 110.688 14.4365C110.688 15.6443 110.977 16.6561 111.563 17.4696C112.143 18.2853 112.98 18.692 114.066 18.692H114.274C114.948 18.692 115.516 18.4771 115.975 18.0454C116.435 17.6156 116.725 17.069 116.848 16.4057H118.801C118.663 17.6135 118.178 18.5668 117.341 19.2677C116.509 19.9687 115.447 20.3212 114.16 20.3212Z" fill="currentcolor"/>
<path d="M124.08 20.0944C123.299 20.0944 122.702 19.8941 122.289 19.4936C121.873 19.0952 121.668 18.5173 121.668 17.7622V10.4298H119.094V8.77763H121.668V5.11035H123.621V8.77763H126.426V10.4298H123.621V17.4931C123.621 17.8248 123.688 18.0584 123.829 18.194C123.966 18.3296 124.204 18.3984 124.54 18.3984H126.771V20.0964H124.08V20.0944Z" fill="currentcolor"/>
</g>
<defs>
<linearGradient id="paint0_linear_2199_11832" x1="17.9793" y1="8.21907" x2="35.7124" y2="8.21907" gradientUnits="userSpaceOnUse">
<stop stop-color="currentcolor"/>
<stop offset="1" stop-color="currentcolor" stop-opacity="0"/>
</linearGradient>
<linearGradient id="paint1_linear_2199_11832" x1="15.1448" y1="20.1001" x2="-0.319518" y2="20.1001" gradientUnits="userSpaceOnUse">
<stop stop-color="currentcolor"/>
<stop offset="1" stop-color="currentcolor" stop-opacity="0"/>
</linearGradient>
<clipPath id="clip0_2199_11832">
<rect width="126.225" height="23.76" fill="currentcolor" transform="translate(0.546875 0.299805)"/>
</clipPath>
</defs>
</svg>
