<svg width="4.36em" height="1em" viewBox="0 0 61 14" fill="none" xmlns="http://www.w3.org/2000/svg">
<g clip-path="url(#clip0_7445_30185)">
<path d="M12.2081 7.96812H12.9061C13.0837 9.33333 13.9844 10.6229 15.5704 10.6229C16.3826 10.6229 17.0295 10.1804 17.0295 9.35861C17.0295 7.26012 12.2081 8.54941 12.2081 5.06042C12.2081 3.54385 13.3756 2.40592 15.1516 2.40592C16.2684 2.40592 16.801 2.8864 17.1818 2.8864C17.3594 2.8864 17.5621 2.8232 17.5621 2.46917H18.2348V5.8191H17.5368C17.5368 4.20101 16.5472 3.29071 15.3293 3.29071C14.4409 3.29071 13.7937 3.73322 13.7937 4.42864C13.7937 6.52714 18.6155 5.23781 18.6155 8.72676C18.6155 10.3701 17.4479 11.5077 15.697 11.5077C14.3267 11.5077 13.7937 10.9261 13.2734 10.9261C13.0323 10.9261 12.8803 11.0905 12.8803 11.4445H12.208V7.96816L12.2081 7.96812ZM23.7595 10.2436C23.4172 10.9643 22.7573 11.508 21.7931 11.508C21.1966 11.508 20.651 11.3183 20.2703 10.9138C19.9153 10.5471 19.6995 10.029 19.6995 9.19456V6.83052C19.6995 6.38799 19.6234 6.22364 19.4961 6.09716C19.3696 5.97071 19.1916 5.88225 18.8112 5.88225H18.7477V5.06042H21.4759V9.02987C21.4759 9.49768 21.5901 9.76319 21.755 9.92758C21.9581 10.1299 22.1862 10.1804 22.4273 10.1804C22.7446 10.1804 23.0492 10.0287 23.2522 9.77585C23.4682 9.49768 23.5695 9.10576 23.5695 8.36004V6.83052C23.5695 6.38799 23.4933 6.22364 23.3664 6.09716C23.2395 5.97071 23.0618 5.88225 22.6812 5.88225H22.618V5.06042H25.3461V9.61113C25.3461 10.0537 25.422 10.2181 25.5491 10.3445C25.6758 10.4709 25.8537 10.5594 26.2976 10.5594H26.4244V11.3813H23.7598V10.2434L23.7595 10.2436ZM31.9457 8.48242C32.0092 10.0758 31.2408 11.3354 29.5977 11.4786C27.7522 11.6395 26.5044 10.3397 26.3509 8.58923C26.1916 6.77585 27.2154 5.08759 29.086 4.92448C30.6913 4.78447 31.5806 5.77287 31.6643 6.72999C31.7142 7.29674 31.5 7.7595 30.8931 7.81232C30.5013 7.84642 30.0872 7.62864 30.0409 7.09984C30.0187 6.84792 30.06 6.59062 30.0422 6.38894C30.0057 5.97328 29.663 5.69891 29.1704 5.7416C28.2729 5.81997 27.7062 6.61779 27.8125 7.82683C27.9077 8.90976 28.5044 10.0505 29.8315 9.93482C30.6533 9.86308 31.1088 9.2527 31.2503 8.54217L31.9457 8.48148V8.48242ZM37.85 8.4808C37.9133 10.0742 37.145 11.3338 35.5019 11.477C33.6564 11.6379 32.4086 10.3382 32.2551 8.58769C32.0958 6.77423 33.1196 5.08604 34.9902 4.92294C36.5955 4.78289 37.4848 5.77132 37.5685 6.72845C37.6184 7.2952 37.4042 7.75795 36.7973 7.8107C36.4055 7.84487 35.9914 7.62706 35.9451 7.09825C35.9229 6.8463 35.9642 6.58904 35.9464 6.38739C35.9099 5.97173 35.5673 5.69736 35.0745 5.74005C34.177 5.81842 33.6104 6.61624 33.7167 7.82524C33.8119 8.90817 34.4086 10.0489 35.7357 9.93323C36.5574 9.86149 37.013 9.25112 37.1545 8.54055L37.85 8.47986V8.4808ZM55.0818 8.72329C55.0058 10.316 54.1302 11.5042 52.4808 11.5042C50.6281 11.5042 49.4991 10.1011 49.4991 8.34399C49.4991 6.5236 50.6665 4.93081 52.5445 4.93081C54.1558 4.93081 54.9553 5.99257 54.9553 6.95346C54.9553 7.52243 54.7015 7.96465 54.0922 7.96465C53.6994 7.96465 53.3059 7.71176 53.3059 7.18103C53.3059 6.92818 53.3692 6.67532 53.3692 6.47303C53.3692 6.05583 53.0521 5.75267 52.5573 5.75267C51.6561 5.75267 51.022 6.49831 51.022 7.7121C51.022 8.79914 51.5168 9.9876 52.8491 9.9876C53.6738 9.9876 54.1811 9.41897 54.384 8.72355H55.0822L55.0818 8.72329ZM39.9525 2.33984C39.3307 2.33984 38.8483 2.83296 38.8483 3.45249C38.8483 4.07201 39.3307 4.55249 39.9525 4.55249C40.5712 4.55249 41.066 4.07201 41.066 3.45249C41.066 2.83296 40.5712 2.33984 39.9525 2.33984ZM49.5367 10.5582C49.156 10.5582 48.9786 10.4728 48.8517 10.3464C48.7248 10.22 48.6484 10.0556 48.6484 9.61305V7.2487C48.6484 6.41422 48.4582 5.87053 48.1027 5.50389C47.722 5.0993 47.1511 4.93492 46.6179 4.93492C45.5266 4.93492 44.8668 5.47861 44.5241 6.19923V5.06133H41.8591V5.88315H41.986C42.4303 5.88315 42.6081 5.97162 42.735 6.09806C42.8619 6.22451 42.938 6.3889 42.938 6.83142V9.61301C42.938 10.0555 42.8619 10.2199 42.735 10.3463C42.6081 10.4728 42.4303 10.5581 41.986 10.5581H41.8274C41.3835 10.5581 41.2057 10.4728 41.0788 10.3463C40.9549 10.2199 40.8758 10.0555 40.8758 9.61301V5.06133H38.0236V5.88315H38.1505C38.5945 5.88315 38.7723 5.97162 38.8992 6.09806C39.0261 6.22451 39.1021 6.3889 39.1021 6.83142V9.61301C39.1021 10.0555 39.0261 10.2199 38.8992 10.3463C38.7723 10.4728 38.5945 10.5581 38.1505 10.5581H38.0236V11.3799H45.4125V10.5581H45.3492C45.2223 10.5581 45.0189 10.5202 44.892 10.3938C44.7651 10.2673 44.7147 10.0555 44.7147 9.61301V8.08315C44.7147 7.33717 44.816 6.95787 45.0317 6.67973C45.2347 6.42688 45.5394 6.26249 45.9581 6.26249C46.1611 6.26249 46.4025 6.30043 46.6055 6.50272C46.7704 6.66707 46.8717 6.94521 46.8717 7.41301V9.61301C46.8717 10.0555 46.8212 10.2673 46.6943 10.3938C46.5674 10.5202 46.3644 10.5581 46.2375 10.5581H46.1739V11.3799H49.6004V10.5581L49.5367 10.5582ZM60.3276 10.4333C59.9724 11.0402 59.249 11.5077 58.4115 11.5077C57.9039 11.5077 57.4347 11.3686 57.092 11.0525C56.7493 10.7364 56.5716 10.256 56.5716 9.40917V6.72905C56.5716 6.33709 56.5083 6.23593 56.4326 6.16008C56.3437 6.07161 56.2417 6.00835 55.8489 6.00835H55.2396V5.31294C56.889 5.02218 57.4855 4.3141 57.6505 2.97423H58.3483V5.06008H60.1879V6.00835H59.0713C58.6782 6.00835 58.5765 6.07158 58.4876 6.16008C58.4115 6.23593 58.3483 6.33709 58.3483 6.72905V9.43416C58.3483 9.76285 58.4368 9.96515 58.6021 10.0916C58.7414 10.1927 58.9064 10.243 59.1225 10.243C59.4272 10.243 59.6682 10.1039 59.8708 9.9269L60.3276 10.4326V10.4333Z" fill="currentColor
"/>
<path d="M9.00336 1.73598V4.33246L6.75614 5.63046V3.03398L4.50895 4.33197V6.92849L2.26172 5.63046V3.03398L6.75614 0.4375L9.00336 1.73598Z" fill="currentColor
"/>
<path opacity="0.4" d="M4.50907 6.9269L2.26186 8.2249L0.0146484 6.9269L2.26186 5.62891L4.50907 6.9269Z" fill="currentColor
"/>
<path d="M6.7563 8.22378V10.8203L2.26186 13.4167L0.0146484 12.1183V9.52177L2.26186 8.22378V10.8203L4.50907 9.52226V6.92578L6.7563 8.22378Z" fill="currentColor
"/>
<path opacity="0.4" d="M9.00369 6.9269L6.75647 8.2249L4.50928 6.9269L6.75647 5.62891L9.00369 6.9269Z" fill="currentColor
"/>
</g>
<defs>
<clipPath id="clip0_7445_30185">
<rect width="60.3277" height="12.9988" fill="white" transform="translate(0 0.4375)"/>
</clipPath>
</defs>
</svg>
