<svg width="984" height="366" viewBox="0 0 984 366" fill="none" xmlns="http://www.w3.org/2000/svg">
<g opacity="0.8" clip-path="url(#clip0_7112_67756)">
<rect x="10.9277" y="-2.68164" width="966.62" height="367.538" fill="url(#paint0_radial_7112_67756)"/>
<g style="mix-blend-mode:exclusion">
<rect x="129.999" y="-2.68164" width="498.956" height="320.412" fill="url(#paint1_radial_7112_67756)"/>
</g>
<g style="mix-blend-mode:exclusion">
<rect x="398.841" y="-61.7422" width="498.956" height="320.412" fill="url(#paint2_radial_7112_67756)"/>
</g>
<path d="M460.403 208.341L479.409 197.576L498.176 208.341V227.628L479.409 238.168L460.403 228.749V208.341Z" fill="url(#paint3_radial_7112_67756)"/>
<path d="M567.004 166.48L586.009 155.715L604.777 166.48V185.766L586.009 196.307L567.004 186.888V166.48Z" fill="url(#paint4_radial_7112_67756)"/>
<path d="M576.312 102.071L595.317 91.3066L614.085 102.071V121.358L595.317 131.899L576.312 122.479V102.071Z" fill="url(#paint5_radial_7112_67756)"/>
<path d="M398.485 168.325L417.491 157.561L436.258 168.325V187.612L417.491 198.152L398.485 188.733V168.325Z" fill="url(#paint6_radial_7112_67756)"/>
<path d="M456.188 152.902L481.86 138.361L507.212 152.902V178.955L481.86 193.193L456.188 180.47V152.902Z" fill="url(#paint7_radial_7112_67756)"/>
<path d="M442.433 104.614L497.809 73.248L552.493 104.614V160.81L497.809 191.522L442.433 164.077V104.614Z" fill="url(#paint8_radial_7112_67756)"/>
<path d="M443.708 102.814L443.71 161.952L497.961 191.522" stroke="white" stroke-width="0.896992"/>
<path d="M497.961 132.381L497.959 191.518" stroke="white" stroke-width="0.896992"/>
<path d="M552.218 102.813L552.216 161.95L497.965 191.52" stroke="white" stroke-width="0.896992"/>
<path d="M443.71 102.814L497.963 73.2475L552.216 102.814" stroke="white" stroke-width="0.896992"/>
<path d="M443.71 102.814L497.963 132.381L552.216 102.814" stroke="white" stroke-width="0.896992"/>
<path d="M456.631 152.203L456.632 179.53L481.701 193.195" stroke="white" stroke-width="0.896992"/>
<path d="M481.701 165.867L481.7 193.194" stroke="white" stroke-width="0.896992"/>
<path d="M506.773 152.203L506.772 179.53L481.703 193.194" stroke="white" stroke-width="0.896992"/>
<path d="M456.632 152.203L481.702 138.54L506.772 152.203" stroke="white" stroke-width="0.896992"/>
<path d="M456.632 152.203L481.702 165.866L506.772 152.203" stroke="white" stroke-width="0.896992"/>
<path d="M478.847 91.7969L478.847 112.089L497.463 122.236" stroke="white" stroke-width="0.896992"/>
<path d="M497.463 101.941L497.462 122.234" stroke="white" stroke-width="0.896992"/>
<path d="M516.081 91.7946L516.08 112.087L497.464 122.234" stroke="white" stroke-width="0.896992"/>
<path d="M478.848 91.7969L497.464 81.6512L516.081 91.7969" stroke="white" stroke-width="0.896992"/>
<path d="M478.848 91.7969L497.464 101.943L516.081 91.7969" stroke="white" stroke-width="0.896992"/>
<path d="M399.024 167.707L399.025 188L417.641 198.146" stroke="white" stroke-width="0.896992"/>
<path d="M417.641 177.852L417.64 198.144" stroke="white" stroke-width="0.896992"/>
<path d="M436.258 167.705L436.258 187.997L417.642 198.144" stroke="white" stroke-width="0.896992"/>
<path d="M399.025 167.707L417.642 157.561L436.258 167.707" stroke="white" stroke-width="0.896992"/>
<path d="M399.025 167.707L417.642 177.853L436.258 167.707" stroke="white" stroke-width="0.896992"/>
<path d="M461.113 208.291L461.114 228.584L479.73 238.73" stroke="white" stroke-width="1.12124"/>
<path d="M479.729 218.436L479.729 238.728" stroke="white" stroke-width="1.12124"/>
<path d="M498.347 208.289L498.347 228.581L479.731 238.728" stroke="white" stroke-width="1.12124"/>
<path d="M461.114 208.291L479.731 198.145L498.347 208.291" stroke="white" stroke-width="1.12124"/>
<path d="M461.114 208.291L479.731 218.437L498.347 208.291" stroke="white" stroke-width="1.12124"/>
<path d="M567.543 165.869L567.544 186.162L586.159 196.308" stroke="white" stroke-width="0.896992"/>
<path d="M586.159 176.014L586.159 196.306" stroke="white" stroke-width="0.896992"/>
<path d="M604.777 165.867L604.776 186.159L586.16 196.306" stroke="white" stroke-width="0.896992"/>
<path d="M567.544 165.869L586.16 155.723L604.777 165.869" stroke="white" stroke-width="0.896992"/>
<path d="M567.544 165.869L586.16 176.015L604.777 165.869" stroke="white" stroke-width="0.896992"/>
<path d="M576.851 101.943L576.851 122.236L595.467 132.383" stroke="white" stroke-width="0.896992"/>
<path d="M595.467 112.088L595.466 132.38" stroke="white" stroke-width="0.896992"/>
<path d="M614.085 101.941L614.084 122.234L595.468 132.38" stroke="white" stroke-width="0.896992"/>
<path d="M576.852 101.943L595.468 91.7977L614.085 101.943" stroke="white" stroke-width="0.896992"/>
<path d="M576.852 101.943L595.468 112.089L614.085 101.943" stroke="white" stroke-width="0.896992"/>
<path d="M630.008 313.728L317.578 143.434" stroke="url(#paint9_linear_7112_67756)" stroke-opacity="0.3" stroke-width="0.896992"/>
<path d="M627.048 272.236L314.618 101.941" stroke="url(#paint10_linear_7112_67756)" stroke-opacity="0.3" stroke-width="0.896992"/>
<path d="M684.609 234.161L372.179 63.8672" stroke="url(#paint11_linear_7112_67756)" stroke-opacity="0.3" stroke-width="0.896992"/>
<path d="M746.139 208.288L433.709 37.9941" stroke="url(#paint12_linear_7112_67756)" stroke-opacity="0.3" stroke-width="0.896992"/>
<path d="M671.108 285.997L358.678 115.703" stroke="url(#paint13_linear_7112_67756)" stroke-opacity="0.3" stroke-width="0.896992"/>
<path d="M734.419 276.331L421.989 106.037" stroke="url(#paint14_linear_7112_67756)" stroke-opacity="0.3" stroke-width="0.896992"/>
<path d="M659.098 262.999L346.668 92.7051" stroke="url(#paint15_linear_7112_67756)" stroke-opacity="0.3" stroke-width="0.896992"/>
<path d="M823.969 306.038L511.539 135.744" stroke="url(#paint16_linear_7112_67756)" stroke-opacity="0.3" stroke-width="0.896992"/>
<path d="M781.595 214.089L469.165 43.7949" stroke="url(#paint17_linear_7112_67756)" stroke-opacity="0.3" stroke-width="0.896992"/>
<path d="M746.139 173.154L433.709 2.85938" stroke="url(#paint18_linear_7112_67756)" stroke-opacity="0.3" stroke-width="0.896992"/>
<path d="M372.179 296.724L684.609 126.43" stroke="url(#paint19_linear_7112_67756)" stroke-opacity="0.3" stroke-width="0.896992"/>
<path d="M348.897 326.009L661.327 155.715" stroke="url(#paint20_linear_7112_67756)" stroke-opacity="0.3" stroke-width="0.896992"/>
<path d="M396 279.585L708.43 109.291" stroke="url(#paint21_linear_7112_67756)" stroke-opacity="0.3" stroke-width="0.896992"/>
<path d="M390.298 262.089L702.728 91.7949" stroke="url(#paint22_linear_7112_67756)" stroke-opacity="0.3" stroke-width="0.896992"/>
<path d="M364.879 217.046L677.309 46.752" stroke="url(#paint23_linear_7112_67756)" stroke-opacity="0.3" stroke-width="0.896992"/>
<path d="M316.865 200.851L629.295 30.5566" stroke="url(#paint24_linear_7112_67756)" stroke-opacity="0.3" stroke-width="0.896992"/>
<path d="M247.496 217.531L559.926 47.2363" stroke="url(#paint25_linear_7112_67756)" stroke-opacity="0.3" stroke-width="0.896992"/>
<path d="M290.733 186.159L603.163 15.8652" stroke="url(#paint26_linear_7112_67756)" stroke-opacity="0.3" stroke-width="0.896992"/>
<path d="M385.047 193.195L697.477 22.9004" stroke="url(#paint27_linear_7112_67756)" stroke-opacity="0.3" stroke-width="0.896992"/>
<path d="M414.767 210.284L727.197 39.9902" stroke="url(#paint28_linear_7112_67756)" stroke-opacity="0.3" stroke-width="0.896992"/>
<path d="M303.096 294.275L615.526 123.98" stroke="url(#paint29_linear_7112_67756)" stroke-opacity="0.3" stroke-width="0.896992"/>
<path d="M399.025 261.601L711.455 91.3066" stroke="url(#paint30_linear_7112_67756)" stroke-opacity="0.3" stroke-width="0.896992"/>
<path d="M242.809 207.378L555.239 37.084" stroke="url(#paint31_linear_7112_67756)" stroke-opacity="0.3" stroke-width="0.896992"/>
<path d="M253.861 246.534L566.291 76.2402" stroke="url(#paint32_linear_7112_67756)" stroke-opacity="0.3" stroke-width="0.896992"/>
<path d="M264.584 261.158L577.014 90.8633" stroke="url(#paint33_linear_7112_67756)" stroke-opacity="0.3" stroke-width="0.896992"/>
<path d="M270.735 278.341L583.165 108.047" stroke="url(#paint34_linear_7112_67756)" stroke-opacity="0.3" stroke-width="0.896992"/>
<g filter="url(#filter0_f_7112_67756)">
<circle cx="414.802" cy="100.195" r="1.73792" fill="url(#paint35_radial_7112_67756)"/>
<circle cx="414.802" cy="100.195" r="1.6258" stroke="white" stroke-opacity="0.24" stroke-width="0.224248"/>
<g opacity="0.7">
<circle cx="423.63" cy="215.293" r="1.73792" fill="url(#paint36_radial_7112_67756)"/>
<circle cx="423.63" cy="215.293" r="1.6258" stroke="white" stroke-opacity="0.24" stroke-width="0.224248"/>
</g>
<ellipse cx="411.917" cy="128.17" rx="1.84114" ry="1.73805" fill="url(#paint37_radial_7112_67756)"/>
<path d="M413.646 128.17C413.646 129.062 412.878 129.796 411.917 129.796C410.956 129.796 410.188 129.062 410.188 128.17C410.188 127.278 410.956 126.544 411.917 126.544C412.878 126.544 413.646 127.278 413.646 128.17Z" stroke="white" stroke-opacity="0.24" stroke-width="0.224248"/>
<ellipse cx="431.868" cy="138.508" rx="1.84115" ry="1.73805" fill="url(#paint38_radial_7112_67756)"/>
<path d="M433.597 138.508C433.597 139.4 432.829 140.134 431.868 140.134C430.906 140.134 430.138 139.4 430.138 138.508C430.138 137.616 430.906 136.882 431.868 136.882C432.829 136.882 433.597 137.616 433.597 138.508Z" stroke="white" stroke-opacity="0.24" stroke-width="0.224248"/>
<ellipse cx="512.047" cy="73.2127" rx="1.84115" ry="1.73805" fill="url(#paint39_radial_7112_67756)"/>
<path d="M513.776 73.2127C513.776 74.1046 513.008 74.8386 512.047 74.8386C511.086 74.8386 510.318 74.1046 510.318 73.2127C510.318 72.3207 511.086 71.5867 512.047 71.5867C513.008 71.5867 513.776 72.3207 513.776 73.2127Z" stroke="white" stroke-opacity="0.24" stroke-width="0.224248"/>
<ellipse cx="562.276" cy="129.873" rx="1.84115" ry="1.73805" fill="url(#paint40_radial_7112_67756)"/>
<path d="M564.005 129.873C564.005 130.765 563.237 131.499 562.276 131.499C561.315 131.499 560.547 130.765 560.547 129.873C560.547 128.981 561.315 128.247 562.276 128.247C563.237 128.247 564.005 128.981 564.005 129.873Z" stroke="white" stroke-opacity="0.24" stroke-width="0.224248"/>
<ellipse cx="531.522" cy="209.84" rx="1.84112" ry="1.73805" fill="url(#paint41_radial_7112_67756)"/>
<path d="M533.251 209.84C533.251 210.732 532.483 211.466 531.522 211.466C530.561 211.466 529.793 210.732 529.793 209.84C529.793 208.948 530.561 208.214 531.522 208.214C532.483 208.214 533.251 208.948 533.251 209.84Z" stroke="white" stroke-opacity="0.24" stroke-width="0.224248"/>
<ellipse cx="508.614" cy="196.638" rx="1.84112" ry="1.73805" fill="url(#paint42_radial_7112_67756)"/>
<path d="M510.343 196.638C510.343 197.53 509.575 198.264 508.614 198.264C507.653 198.264 506.885 197.53 506.885 196.638C506.885 195.746 507.653 195.013 508.614 195.013C509.575 195.013 510.343 195.746 510.343 196.638Z" stroke="white" stroke-opacity="0.24" stroke-width="0.224248"/>
<ellipse cx="561.767" cy="108.752" rx="1.84112" ry="1.73805" fill="url(#paint43_radial_7112_67756)"/>
<path d="M563.496 108.752C563.496 109.644 562.728 110.378 561.767 110.378C560.806 110.378 560.038 109.644 560.038 108.752C560.038 107.86 560.806 107.126 561.767 107.126C562.728 107.126 563.496 107.86 563.496 108.752Z" stroke="white" stroke-opacity="0.24" stroke-width="0.224248"/>
<g opacity="0.7">
<circle cx="509.18" cy="58.2477" r="1.73792" fill="url(#paint44_radial_7112_67756)"/>
<circle cx="509.18" cy="58.2477" r="1.6258" stroke="white" stroke-opacity="0.24" stroke-width="0.224248"/>
</g>
<g opacity="0.7">
<circle cx="561.83" cy="48.9723" r="1.73792" fill="url(#paint45_radial_7112_67756)"/>
<circle cx="561.83" cy="48.9723" r="1.6258" stroke="white" stroke-opacity="0.24" stroke-width="0.224248"/>
</g>
<g opacity="0.7">
<circle cx="569.829" cy="130.672" r="1.73792" fill="url(#paint46_radial_7112_67756)"/>
<circle cx="569.829" cy="130.672" r="1.6258" stroke="white" stroke-opacity="0.24" stroke-width="0.224248"/>
</g>
<ellipse cx="521.093" cy="141.697" rx="1.84112" ry="1.73805" fill="url(#paint47_radial_7112_67756)"/>
<path d="M522.822 141.697C522.822 142.589 522.054 143.323 521.093 143.323C520.132 143.323 519.364 142.589 519.364 141.697C519.364 140.805 520.132 140.071 521.093 140.071C522.054 140.071 522.822 140.805 522.822 141.697Z" stroke="white" stroke-opacity="0.24" stroke-width="0.224248"/>
<g opacity="0.7">
<circle cx="411.8" cy="113.959" r="1.73792" fill="url(#paint48_radial_7112_67756)"/>
<circle cx="411.8" cy="113.959" r="1.6258" stroke="white" stroke-opacity="0.24" stroke-width="0.224248"/>
</g>
<g opacity="0.7">
<circle cx="522.374" cy="177.843" r="1.73792" fill="url(#paint49_radial_7112_67756)"/>
<circle cx="522.374" cy="177.843" r="1.6258" stroke="white" stroke-opacity="0.24" stroke-width="0.224248"/>
</g>
<g opacity="0.7">
<circle cx="509.18" cy="58.2477" r="1.73792" fill="url(#paint50_radial_7112_67756)"/>
<circle cx="509.18" cy="58.2477" r="1.6258" stroke="white" stroke-opacity="0.24" stroke-width="0.224248"/>
</g>
<g opacity="0.7">
<circle cx="365.199" cy="141.687" r="1.73792" fill="url(#paint51_radial_7112_67756)"/>
<circle cx="365.199" cy="141.687" r="1.6258" stroke="white" stroke-opacity="0.24" stroke-width="0.224248"/>
</g>
<g opacity="0.7">
<circle cx="613.71" cy="120.486" r="1.73792" fill="url(#paint52_radial_7112_67756)"/>
<circle cx="613.71" cy="120.486" r="1.6258" stroke="white" stroke-opacity="0.24" stroke-width="0.224248"/>
</g>
<g opacity="0.7">
<circle cx="619.404" cy="159.144" r="1.73792" fill="url(#paint53_radial_7112_67756)"/>
<circle cx="619.404" cy="159.144" r="1.6258" stroke="white" stroke-opacity="0.24" stroke-width="0.224248"/>
</g>
<g opacity="0.7">
<circle cx="477.039" cy="63.8629" r="1.73792" fill="url(#paint54_radial_7112_67756)"/>
<circle cx="477.039" cy="63.8629" r="1.6258" stroke="white" stroke-opacity="0.24" stroke-width="0.224248"/>
</g>
<g opacity="0.7">
<circle cx="359.94" cy="178.668" r="1.73792" fill="url(#paint55_radial_7112_67756)"/>
<circle cx="359.94" cy="178.668" r="1.6258" stroke="white" stroke-opacity="0.24" stroke-width="0.224248"/>
</g>
<g opacity="0.7">
<circle cx="507.442" cy="81.6422" r="1.73792" fill="url(#paint56_radial_7112_67756)"/>
<circle cx="507.442" cy="81.6422" r="1.6258" stroke="white" stroke-opacity="0.24" stroke-width="0.224248"/>
</g>
</g>
<path d="M499.389 92.9404L501.787 94.2473C501.841 94.2768 501.933 94.2512 501.921 94.21L500.751 90.3427C500.737 90.297 500.618 90.294 500.597 90.3388L499.369 92.8992C499.362 92.9139 499.369 92.9296 499.389 92.9404Z" fill="white" stroke="#11B351" stroke-width="0.12514" stroke-linejoin="round"/>
<path d="M501.669 94.3134L499.271 93.0064C499.252 92.9956 499.223 92.9914 499.196 92.9952L494.498 93.6646C494.416 93.6763 494.421 93.7409 494.505 93.7484L501.601 94.386C501.676 94.3928 501.724 94.3429 501.669 94.3134Z" fill="white" stroke="#11B351" stroke-width="0.12514" stroke-linejoin="round"/>
<path d="M495.219 90.6637L498.439 92.4187C498.482 92.442 498.555 92.4315 498.571 92.3997L499.917 89.6966C499.934 89.6627 499.874 89.6328 499.813 89.6452L495.246 90.5933C495.193 90.6044 495.178 90.6417 495.219 90.6637Z" fill="white" stroke="#11B351" stroke-width="0.12514" stroke-linejoin="round"/>
<path d="M498.316 92.4865L495.096 90.7315C495.055 90.7095 494.987 90.7175 494.967 90.7466L493.227 93.2356C493.204 93.2683 493.259 93.3014 493.321 93.2922L498.281 92.5583C498.339 92.5496 498.359 92.5098 498.316 92.4865Z" fill="white" stroke="#11B351" stroke-width="0.12514" stroke-linejoin="round"/>
<path d="M499.557 89.5226L491.409 88.4752C491.332 88.4653 491.279 88.5167 491.335 88.5472L494.974 90.5306C494.996 90.5425 495.029 90.5463 495.058 90.5403L499.567 89.6044C499.639 89.5893 499.632 89.5323 499.557 89.5226Z" fill="white" stroke="#11B351" stroke-width="0.12514" stroke-linejoin="round"/>
<path d="M491.081 88.6533L493.003 93.0937C493.021 93.1349 493.125 93.1386 493.153 93.0991L494.87 90.642C494.881 90.6262 494.874 90.6084 494.852 90.5964L491.213 88.6131C491.157 88.5825 491.063 88.6112 491.081 88.6533Z" fill="white" stroke="#11B351" stroke-width="0.12514" stroke-linejoin="round"/>
<path d="M487.33 116.843L487.33 116.993L487.878 116.993L487.878 116.843L487.33 116.843ZM501.79 87.7654C501.76 87.6845 501.616 87.6321 501.467 87.6484C501.319 87.6646 501.223 87.7434 501.252 87.8243L501.79 87.7654ZM487.604 96.8135L487.878 96.8135L487.604 96.8135ZM487.659 96.7421L487.851 96.8491L487.659 96.7421ZM504.187 95.7154L504.235 95.5683L504.187 95.7154ZM504.398 95.5977L504.129 95.6271L504.398 95.5977ZM491.927 94.5343L491.974 94.3871L491.927 94.5343ZM491.767 94.561L491.576 94.454L491.767 94.561ZM491.879 94.6814L504.139 95.8626L504.235 95.5683L491.974 94.3871L491.879 94.6814ZM504.667 95.5683L501.79 87.7654L501.252 87.8243L504.129 95.6271L504.667 95.5683ZM487.878 116.843L487.878 96.8135L487.33 96.8135L487.33 116.843L487.878 116.843ZM487.851 96.8491L491.959 94.6681L491.576 94.454L487.468 96.635L487.851 96.8491ZM487.878 96.8135C487.878 96.8269 487.868 96.8398 487.851 96.8491L487.468 96.635C487.38 96.6819 487.33 96.7463 487.33 96.8135L487.878 96.8135ZM504.139 95.8626C504.456 95.8931 504.73 95.7403 504.667 95.5683L504.129 95.6271C504.116 95.5927 504.171 95.5622 504.235 95.5683L504.139 95.8626ZM491.974 94.3871C491.83 94.3732 491.681 94.398 491.576 94.454L491.959 94.6681C491.938 94.6792 491.908 94.6842 491.879 94.6814L491.974 94.3871Z" fill="white"/>
</g>
<defs>
<filter id="filter0_f_7112_67756" x="356.408" y="45.4404" width="266.527" height="173.385" filterUnits="userSpaceOnUse" color-interpolation-filters="sRGB">
<feFlood flood-opacity="0" result="BackgroundImageFix"/>
<feBlend mode="normal" in="SourceGraphic" in2="BackgroundImageFix" result="shape"/>
<feGaussianBlur stdDeviation="0.896992" result="effect1_foregroundBlur_7112_67756"/>
</filter>
<radialGradient id="paint0_radial_7112_67756" cx="0" cy="0" r="1" gradientUnits="userSpaceOnUse" gradientTransform="translate(506.206 131.877) rotate(176.384) scale(284.507 207.064)">
<stop stop-color="#25E270" stop-opacity="0.3"/>
<stop offset="1" stop-color="#031C1E" stop-opacity="0"/>
</radialGradient>
<radialGradient id="paint1_radial_7112_67756" cx="0" cy="0" r="1" gradientUnits="userSpaceOnUse" gradientTransform="translate(385.655 114.624) rotate(173.909) scale(147.399 179.853)">
<stop stop-color="#25E270" stop-opacity="0.3"/>
<stop offset="1" stop-color="#031C1E" stop-opacity="0"/>
</radialGradient>
<radialGradient id="paint2_radial_7112_67756" cx="0" cy="0" r="1" gradientUnits="userSpaceOnUse" gradientTransform="translate(654.497 55.5637) rotate(173.909) scale(147.399 179.853)">
<stop stop-color="#25E270" stop-opacity="0.3"/>
<stop offset="1" stop-color="#031C1E" stop-opacity="0"/>
</radialGradient>
<radialGradient id="paint3_radial_7112_67756" cx="0" cy="0" r="1" gradientUnits="userSpaceOnUse" gradientTransform="translate(478.847 198.145) rotate(90) scale(42.861 45.3385)">
<stop stop-color="#25E270"/>
<stop offset="1" stop-color="#031C1E" stop-opacity="0"/>
</radialGradient>
<radialGradient id="paint4_radial_7112_67756" cx="0" cy="0" r="1" gradientUnits="userSpaceOnUse" gradientTransform="translate(585.448 156.283) rotate(90) scale(42.861 45.3385)">
<stop stop-color="#25E270"/>
<stop offset="1" stop-color="#031C1E" stop-opacity="0"/>
</radialGradient>
<radialGradient id="paint5_radial_7112_67756" cx="0" cy="0" r="1" gradientUnits="userSpaceOnUse" gradientTransform="translate(594.755 91.8752) rotate(90) scale(42.861 45.3384)">
<stop stop-color="#25E270"/>
<stop offset="1" stop-color="#031C1E" stop-opacity="0"/>
</radialGradient>
<radialGradient id="paint6_radial_7112_67756" cx="0" cy="0" r="1" gradientUnits="userSpaceOnUse" gradientTransform="translate(416.929 158.129) rotate(90) scale(42.861 45.3385)">
<stop stop-color="#25E270"/>
<stop offset="1" stop-color="#031C1E" stop-opacity="0"/>
</radialGradient>
<radialGradient id="paint7_radial_7112_67756" cx="0" cy="0" r="1" gradientUnits="userSpaceOnUse" gradientTransform="translate(481.102 139.129) rotate(90) scale(57.897 61.2435)">
<stop stop-color="#25E270"/>
<stop offset="1" stop-color="#031C1E" stop-opacity="0"/>
</radialGradient>
<radialGradient id="paint8_radial_7112_67756" cx="0" cy="0" r="1" gradientUnits="userSpaceOnUse" gradientTransform="translate(496.173 74.9046) rotate(90) scale(124.886 132.104)">
<stop stop-color="#25E270"/>
<stop offset="1" stop-color="#031C1E" stop-opacity="0"/>
</radialGradient>
<linearGradient id="paint9_linear_7112_67756" x1="317.578" y1="143.934" x2="630.002" y2="143.923" gradientUnits="userSpaceOnUse">
<stop stop-color="white"/>
<stop offset="1" stop-color="white" stop-opacity="0"/>
</linearGradient>
<linearGradient id="paint10_linear_7112_67756" x1="314.618" y1="102.441" x2="627.042" y2="102.431" gradientUnits="userSpaceOnUse">
<stop stop-color="white"/>
<stop offset="1" stop-color="white" stop-opacity="0"/>
</linearGradient>
<linearGradient id="paint11_linear_7112_67756" x1="372.179" y1="64.3672" x2="684.603" y2="64.3566" gradientUnits="userSpaceOnUse">
<stop stop-color="white"/>
<stop offset="1" stop-color="white" stop-opacity="0"/>
</linearGradient>
<linearGradient id="paint12_linear_7112_67756" x1="433.709" y1="38.4941" x2="746.133" y2="38.4836" gradientUnits="userSpaceOnUse">
<stop stop-color="white"/>
<stop offset="1" stop-color="white" stop-opacity="0"/>
</linearGradient>
<linearGradient id="paint13_linear_7112_67756" x1="358.678" y1="116.203" x2="671.102" y2="116.193" gradientUnits="userSpaceOnUse">
<stop stop-color="white"/>
<stop offset="1" stop-color="white" stop-opacity="0"/>
</linearGradient>
<linearGradient id="paint14_linear_7112_67756" x1="421.989" y1="106.537" x2="734.413" y2="106.527" gradientUnits="userSpaceOnUse">
<stop stop-color="white"/>
<stop offset="1" stop-color="white" stop-opacity="0"/>
</linearGradient>
<linearGradient id="paint15_linear_7112_67756" x1="346.668" y1="93.2051" x2="659.092" y2="93.1945" gradientUnits="userSpaceOnUse">
<stop stop-color="white"/>
<stop offset="1" stop-color="white" stop-opacity="0"/>
</linearGradient>
<linearGradient id="paint16_linear_7112_67756" x1="511.539" y1="136.244" x2="823.963" y2="136.234" gradientUnits="userSpaceOnUse">
<stop stop-color="white"/>
<stop offset="1" stop-color="white" stop-opacity="0"/>
</linearGradient>
<linearGradient id="paint17_linear_7112_67756" x1="469.165" y1="44.2949" x2="781.589" y2="44.2844" gradientUnits="userSpaceOnUse">
<stop stop-color="white"/>
<stop offset="1" stop-color="white" stop-opacity="0"/>
</linearGradient>
<linearGradient id="paint18_linear_7112_67756" x1="433.709" y1="3.35938" x2="746.133" y2="3.34883" gradientUnits="userSpaceOnUse">
<stop stop-color="white"/>
<stop offset="1" stop-color="white" stop-opacity="0"/>
</linearGradient>
<linearGradient id="paint19_linear_7112_67756" x1="684.609" y1="126.93" x2="372.185" y2="126.919" gradientUnits="userSpaceOnUse">
<stop stop-color="white"/>
<stop offset="1" stop-color="white" stop-opacity="0"/>
</linearGradient>
<linearGradient id="paint20_linear_7112_67756" x1="661.327" y1="156.215" x2="348.903" y2="156.204" gradientUnits="userSpaceOnUse">
<stop stop-color="white"/>
<stop offset="1" stop-color="white" stop-opacity="0"/>
</linearGradient>
<linearGradient id="paint21_linear_7112_67756" x1="708.43" y1="109.791" x2="396.005" y2="109.78" gradientUnits="userSpaceOnUse">
<stop stop-color="white"/>
<stop offset="1" stop-color="white" stop-opacity="0"/>
</linearGradient>
<linearGradient id="paint22_linear_7112_67756" x1="702.728" y1="92.2949" x2="390.303" y2="92.2844" gradientUnits="userSpaceOnUse">
<stop stop-color="white"/>
<stop offset="1" stop-color="white" stop-opacity="0"/>
</linearGradient>
<linearGradient id="paint23_linear_7112_67756" x1="677.309" y1="47.252" x2="364.884" y2="47.2414" gradientUnits="userSpaceOnUse">
<stop stop-color="white"/>
<stop offset="1" stop-color="white" stop-opacity="0"/>
</linearGradient>
<linearGradient id="paint24_linear_7112_67756" x1="629.295" y1="31.0566" x2="316.871" y2="31.0461" gradientUnits="userSpaceOnUse">
<stop stop-color="white"/>
<stop offset="1" stop-color="white" stop-opacity="0"/>
</linearGradient>
<linearGradient id="paint25_linear_7112_67756" x1="559.926" y1="47.7363" x2="247.502" y2="47.7258" gradientUnits="userSpaceOnUse">
<stop stop-color="white"/>
<stop offset="1" stop-color="white" stop-opacity="0"/>
</linearGradient>
<linearGradient id="paint26_linear_7112_67756" x1="603.163" y1="16.3652" x2="290.739" y2="16.3547" gradientUnits="userSpaceOnUse">
<stop stop-color="white"/>
<stop offset="1" stop-color="white" stop-opacity="0"/>
</linearGradient>
<linearGradient id="paint27_linear_7112_67756" x1="697.477" y1="23.4004" x2="385.052" y2="23.3898" gradientUnits="userSpaceOnUse">
<stop stop-color="white"/>
<stop offset="1" stop-color="white" stop-opacity="0"/>
</linearGradient>
<linearGradient id="paint28_linear_7112_67756" x1="727.197" y1="40.4902" x2="414.773" y2="40.4797" gradientUnits="userSpaceOnUse">
<stop stop-color="white"/>
<stop offset="1" stop-color="white" stop-opacity="0"/>
</linearGradient>
<linearGradient id="paint29_linear_7112_67756" x1="615.526" y1="124.48" x2="303.102" y2="124.47" gradientUnits="userSpaceOnUse">
<stop stop-color="white"/>
<stop offset="1" stop-color="white" stop-opacity="0"/>
</linearGradient>
<linearGradient id="paint30_linear_7112_67756" x1="711.455" y1="91.8066" x2="399.031" y2="91.7961" gradientUnits="userSpaceOnUse">
<stop stop-color="white"/>
<stop offset="1" stop-color="white" stop-opacity="0"/>
</linearGradient>
<linearGradient id="paint31_linear_7112_67756" x1="555.239" y1="37.584" x2="242.815" y2="37.5734" gradientUnits="userSpaceOnUse">
<stop stop-color="white"/>
<stop offset="1" stop-color="white" stop-opacity="0"/>
</linearGradient>
<linearGradient id="paint32_linear_7112_67756" x1="566.291" y1="76.7402" x2="253.867" y2="76.7297" gradientUnits="userSpaceOnUse">
<stop stop-color="white"/>
<stop offset="1" stop-color="white" stop-opacity="0"/>
</linearGradient>
<linearGradient id="paint33_linear_7112_67756" x1="577.014" y1="91.3633" x2="264.589" y2="91.3527" gradientUnits="userSpaceOnUse">
<stop stop-color="white"/>
<stop offset="1" stop-color="white" stop-opacity="0"/>
</linearGradient>
<linearGradient id="paint34_linear_7112_67756" x1="583.165" y1="108.547" x2="270.741" y2="108.536" gradientUnits="userSpaceOnUse">
<stop stop-color="white"/>
<stop offset="1" stop-color="white" stop-opacity="0"/>
</linearGradient>
<radialGradient id="paint35_radial_7112_67756" cx="0" cy="0" r="1" gradientUnits="userSpaceOnUse" gradientTransform="translate(414.802 100.195) rotate(90) scale(1.73792)">
<stop stop-color="#6CE8AB"/>
<stop offset="0.638298" stop-color="#6CE8AB"/>
<stop offset="1" stop-color="#6CE8AB" stop-opacity="0"/>
</radialGradient>
<radialGradient id="paint36_radial_7112_67756" cx="0" cy="0" r="1" gradientUnits="userSpaceOnUse" gradientTransform="translate(423.63 215.293) rotate(90) scale(1.73792)">
<stop stop-color="#6CE8AB"/>
<stop offset="0.638298" stop-color="#6CE8AB"/>
<stop offset="1" stop-color="#6CE8AB" stop-opacity="0"/>
</radialGradient>
<radialGradient id="paint37_radial_7112_67756" cx="0" cy="0" r="1" gradientUnits="userSpaceOnUse" gradientTransform="translate(411.917 128.17) rotate(90) scale(1.73805 1.84114)">
<stop stop-color="#6CE8AB"/>
<stop offset="0.638298" stop-color="#6CE8AB"/>
<stop offset="1" stop-color="#6CE8AB" stop-opacity="0"/>
</radialGradient>
<radialGradient id="paint38_radial_7112_67756" cx="0" cy="0" r="1" gradientUnits="userSpaceOnUse" gradientTransform="translate(431.868 138.508) rotate(90) scale(1.73805 1.84115)">
<stop stop-color="#6CE8AB"/>
<stop offset="0.638298" stop-color="#6CE8AB"/>
<stop offset="1" stop-color="#6CE8AB" stop-opacity="0"/>
</radialGradient>
<radialGradient id="paint39_radial_7112_67756" cx="0" cy="0" r="1" gradientUnits="userSpaceOnUse" gradientTransform="translate(512.047 73.2127) rotate(90) scale(1.73805 1.84115)">
<stop stop-color="#6CE8AB"/>
<stop offset="0.638298" stop-color="#6CE8AB"/>
<stop offset="1" stop-color="#6CE8AB" stop-opacity="0"/>
</radialGradient>
<radialGradient id="paint40_radial_7112_67756" cx="0" cy="0" r="1" gradientUnits="userSpaceOnUse" gradientTransform="translate(562.276 129.873) rotate(90) scale(1.73805 1.84115)">
<stop stop-color="#6CE8AB"/>
<stop offset="0.638298" stop-color="#6CE8AB"/>
<stop offset="1" stop-color="#6CE8AB" stop-opacity="0"/>
</radialGradient>
<radialGradient id="paint41_radial_7112_67756" cx="0" cy="0" r="1" gradientUnits="userSpaceOnUse" gradientTransform="translate(531.522 209.84) rotate(90) scale(1.73805 1.84112)">
<stop stop-color="#6CE8AB"/>
<stop offset="0.638298" stop-color="#6CE8AB"/>
<stop offset="1" stop-color="#6CE8AB" stop-opacity="0"/>
</radialGradient>
<radialGradient id="paint42_radial_7112_67756" cx="0" cy="0" r="1" gradientUnits="userSpaceOnUse" gradientTransform="translate(508.614 196.638) rotate(90) scale(1.73805 1.84112)">
<stop stop-color="#6CE8AB"/>
<stop offset="0.638298" stop-color="#6CE8AB"/>
<stop offset="1" stop-color="#6CE8AB" stop-opacity="0"/>
</radialGradient>
<radialGradient id="paint43_radial_7112_67756" cx="0" cy="0" r="1" gradientUnits="userSpaceOnUse" gradientTransform="translate(561.767 108.752) rotate(90) scale(1.73805 1.84112)">
<stop stop-color="#6CE8AB"/>
<stop offset="0.638298" stop-color="#6CE8AB"/>
<stop offset="1" stop-color="#6CE8AB" stop-opacity="0"/>
</radialGradient>
<radialGradient id="paint44_radial_7112_67756" cx="0" cy="0" r="1" gradientUnits="userSpaceOnUse" gradientTransform="translate(509.18 58.2477) rotate(90) scale(1.73792)">
<stop stop-color="#6CE8AB"/>
<stop offset="0.638298" stop-color="#6CE8AB"/>
<stop offset="1" stop-color="#6CE8AB" stop-opacity="0"/>
</radialGradient>
<radialGradient id="paint45_radial_7112_67756" cx="0" cy="0" r="1" gradientUnits="userSpaceOnUse" gradientTransform="translate(561.83 48.9723) rotate(90) scale(1.73792)">
<stop stop-color="#6CE8AB"/>
<stop offset="0.638298" stop-color="#6CE8AB"/>
<stop offset="1" stop-color="#6CE8AB" stop-opacity="0"/>
</radialGradient>
<radialGradient id="paint46_radial_7112_67756" cx="0" cy="0" r="1" gradientUnits="userSpaceOnUse" gradientTransform="translate(569.829 130.672) rotate(90) scale(1.73792)">
<stop stop-color="#6CE8AB"/>
<stop offset="0.638298" stop-color="#6CE8AB"/>
<stop offset="1" stop-color="#6CE8AB" stop-opacity="0"/>
</radialGradient>
<radialGradient id="paint47_radial_7112_67756" cx="0" cy="0" r="1" gradientUnits="userSpaceOnUse" gradientTransform="translate(521.093 141.697) rotate(90) scale(1.73805 1.84112)">
<stop stop-color="#6CE8AB"/>
<stop offset="0.638298" stop-color="#6CE8AB"/>
<stop offset="1" stop-color="#6CE8AB" stop-opacity="0"/>
</radialGradient>
<radialGradient id="paint48_radial_7112_67756" cx="0" cy="0" r="1" gradientUnits="userSpaceOnUse" gradientTransform="translate(411.8 113.959) rotate(90) scale(1.73792)">
<stop stop-color="#6CE8AB"/>
<stop offset="0.638298" stop-color="#6CE8AB"/>
<stop offset="1" stop-color="#6CE8AB" stop-opacity="0"/>
</radialGradient>
<radialGradient id="paint49_radial_7112_67756" cx="0" cy="0" r="1" gradientUnits="userSpaceOnUse" gradientTransform="translate(522.374 177.843) rotate(90) scale(1.73792)">
<stop stop-color="#6CE8AB"/>
<stop offset="0.638298" stop-color="#6CE8AB"/>
<stop offset="1" stop-color="#6CE8AB" stop-opacity="0"/>
</radialGradient>
<radialGradient id="paint50_radial_7112_67756" cx="0" cy="0" r="1" gradientUnits="userSpaceOnUse" gradientTransform="translate(509.18 58.2477) rotate(90) scale(1.73792)">
<stop stop-color="#6CE8AB"/>
<stop offset="0.638298" stop-color="#6CE8AB"/>
<stop offset="1" stop-color="#6CE8AB" stop-opacity="0"/>
</radialGradient>
<radialGradient id="paint51_radial_7112_67756" cx="0" cy="0" r="1" gradientUnits="userSpaceOnUse" gradientTransform="translate(365.199 141.687) rotate(90) scale(1.73792)">
<stop stop-color="#6CE8AB"/>
<stop offset="0.638298" stop-color="#6CE8AB"/>
<stop offset="1" stop-color="#6CE8AB" stop-opacity="0"/>
</radialGradient>
<radialGradient id="paint52_radial_7112_67756" cx="0" cy="0" r="1" gradientUnits="userSpaceOnUse" gradientTransform="translate(613.71 120.486) rotate(90) scale(1.73792)">
<stop stop-color="#6CE8AB"/>
<stop offset="0.638298" stop-color="#6CE8AB"/>
<stop offset="1" stop-color="#6CE8AB" stop-opacity="0"/>
</radialGradient>
<radialGradient id="paint53_radial_7112_67756" cx="0" cy="0" r="1" gradientUnits="userSpaceOnUse" gradientTransform="translate(619.404 159.144) rotate(90) scale(1.73792)">
<stop stop-color="#6CE8AB"/>
<stop offset="0.638298" stop-color="#6CE8AB"/>
<stop offset="1" stop-color="#6CE8AB" stop-opacity="0"/>
</radialGradient>
<radialGradient id="paint54_radial_7112_67756" cx="0" cy="0" r="1" gradientUnits="userSpaceOnUse" gradientTransform="translate(477.039 63.8629) rotate(90) scale(1.73792)">
<stop stop-color="#6CE8AB"/>
<stop offset="0.638298" stop-color="#6CE8AB"/>
<stop offset="1" stop-color="#6CE8AB" stop-opacity="0"/>
</radialGradient>
<radialGradient id="paint55_radial_7112_67756" cx="0" cy="0" r="1" gradientUnits="userSpaceOnUse" gradientTransform="translate(359.94 178.668) rotate(90) scale(1.73792)">
<stop stop-color="#6CE8AB"/>
<stop offset="0.638298" stop-color="#6CE8AB"/>
<stop offset="1" stop-color="#6CE8AB" stop-opacity="0"/>
</radialGradient>
<radialGradient id="paint56_radial_7112_67756" cx="0" cy="0" r="1" gradientUnits="userSpaceOnUse" gradientTransform="translate(507.442 81.6422) rotate(90) scale(1.73792)">
<stop stop-color="#6CE8AB"/>
<stop offset="0.638298" stop-color="#6CE8AB"/>
<stop offset="1" stop-color="#6CE8AB" stop-opacity="0"/>
</radialGradient>
<clipPath id="clip0_7112_67756">
<rect width="984" height="366" fill="white"/>
</clipPath>
</defs>
</svg>
