<svg width="599" height="297" viewBox="0 0 599 297" fill="none" xmlns="http://www.w3.org/2000/svg">
<g opacity="0.8" clip-path="url(#clip0_6779_43312)">
<rect x="10.9282" y="-71.6816" width="966.62" height="367.538" fill="url(#paint0_radial_6779_43312)"/>
<g style="mix-blend-mode:exclusion">
<rect x="129.999" y="-71.6816" width="498.956" height="320.412" fill="url(#paint1_radial_6779_43312)"/>
</g>
<g style="mix-blend-mode:exclusion">
<rect x="398.84" y="-130.742" width="498.956" height="320.412" fill="url(#paint2_radial_6779_43312)"/>
</g>
<path d="M460.403 139.341L479.409 128.576L498.176 139.341V158.628L479.409 169.168L460.403 159.749V139.341Z" fill="url(#paint3_radial_6779_43312)"/>
<path d="M567.004 97.4796L586.01 86.7148L604.777 97.4796V116.766L586.01 127.307L567.004 117.888V97.4796Z" fill="url(#paint4_radial_6779_43312)"/>
<path d="M576.311 33.0713L595.316 22.3066L614.084 33.0713V52.3581L595.316 62.8986L576.311 53.4794V33.0713Z" fill="url(#paint5_radial_6779_43312)"/>
<path d="M398.485 99.3253L417.49 88.5605L436.258 99.3253V118.612L417.49 129.152L398.485 119.733V99.3253Z" fill="url(#paint6_radial_6779_43312)"/>
<path d="M456.188 83.9024L481.86 69.3613L507.212 83.9024V109.955L481.86 124.193L456.188 111.47V83.9024Z" fill="url(#paint7_radial_6779_43312)"/>
<path d="M442.432 35.6136L497.809 4.24805L552.493 35.6136V91.8102L497.809 122.522L442.432 95.0774V35.6136Z" fill="url(#paint8_radial_6779_43312)"/>
<path d="M443.708 33.8145L443.71 92.9516L497.96 122.522" stroke="white" stroke-width="0.896992"/>
<path d="M497.96 63.3809L497.958 122.518" stroke="white" stroke-width="0.896992"/>
<path d="M552.217 33.8126L552.215 92.9497L497.964 122.52" stroke="white" stroke-width="0.896992"/>
<path d="M443.709 33.8145L497.962 4.24752L552.215 33.8145" stroke="white" stroke-width="0.896992"/>
<path d="M443.709 33.8145L497.962 63.3814L552.215 33.8145" stroke="white" stroke-width="0.896992"/>
<path d="M456.631 83.2031L456.632 110.53L481.701 124.195" stroke="white" stroke-width="0.896992"/>
<path d="M481.701 96.8672L481.7 124.194" stroke="white" stroke-width="0.896992"/>
<path d="M506.773 83.2029L506.772 110.53L481.703 124.194" stroke="white" stroke-width="0.896992"/>
<path d="M456.632 83.2031L481.702 69.5403L506.772 83.2031" stroke="white" stroke-width="0.896992"/>
<path d="M456.632 83.2031L481.702 96.8659L506.772 83.2031" stroke="white" stroke-width="0.896992"/>
<path d="M478.847 22.7969L478.847 43.0894L497.463 53.2362" stroke="white" stroke-width="0.896992"/>
<path d="M497.463 32.9414L497.463 53.2339" stroke="white" stroke-width="0.896992"/>
<path d="M516.081 22.7946L516.08 43.0871L497.465 53.2339" stroke="white" stroke-width="0.896992"/>
<path d="M478.847 22.7969L497.464 12.6512L516.08 22.7969" stroke="white" stroke-width="0.896992"/>
<path d="M478.847 22.7969L497.464 32.9426L516.08 22.7969" stroke="white" stroke-width="0.896992"/>
<path d="M399.024 98.707L399.025 119L417.641 129.146" stroke="white" stroke-width="0.896992"/>
<path d="M417.641 108.852L417.64 129.144" stroke="white" stroke-width="0.896992"/>
<path d="M436.259 98.7048L436.258 118.997L417.642 129.144" stroke="white" stroke-width="0.896992"/>
<path d="M399.025 98.707L417.641 88.5613L436.258 98.707" stroke="white" stroke-width="0.896992"/>
<path d="M399.025 98.707L417.641 108.853L436.258 98.707" stroke="white" stroke-width="0.896992"/>
<path d="M461.113 139.291L461.114 159.584L479.73 169.73" stroke="white" stroke-width="1.12124"/>
<path d="M479.73 149.436L479.729 169.728" stroke="white" stroke-width="1.12124"/>
<path d="M498.348 139.289L498.347 159.581L479.731 169.728" stroke="white" stroke-width="1.12124"/>
<path d="M461.114 139.291L479.73 129.145L498.347 139.291" stroke="white" stroke-width="1.12124"/>
<path d="M461.114 139.291L479.73 149.437L498.347 139.291" stroke="white" stroke-width="1.12124"/>
<path d="M567.543 96.8672L567.544 117.16L586.159 127.307" stroke="white" stroke-width="0.896992"/>
<path d="M586.16 107.014L586.159 127.306" stroke="white" stroke-width="0.896992"/>
<path d="M604.777 96.8669L604.777 117.159L586.161 127.306" stroke="white" stroke-width="0.896992"/>
<path d="M567.543 96.8691L586.16 86.7234L604.776 96.8691" stroke="white" stroke-width="0.896992"/>
<path d="M567.543 96.8691L586.16 107.015L604.776 96.8691" stroke="white" stroke-width="0.896992"/>
<path d="M576.851 32.9434L576.851 53.2359L595.467 63.3827" stroke="white" stroke-width="0.896992"/>
<path d="M595.467 43.0879L595.467 63.3804" stroke="white" stroke-width="0.896992"/>
<path d="M614.085 32.9411L614.084 53.2336L595.469 63.3804" stroke="white" stroke-width="0.896992"/>
<path d="M576.852 32.9434L595.468 22.7977L614.085 32.9434" stroke="white" stroke-width="0.896992"/>
<path d="M576.852 32.9434L595.468 43.0891L614.085 32.9434" stroke="white" stroke-width="0.896992"/>
<path d="M630.008 244.728L317.578 74.4336" stroke="url(#paint9_linear_6779_43312)" stroke-opacity="0.3" stroke-width="0.896992"/>
<path d="M627.048 203.236L314.618 32.9414" stroke="url(#paint10_linear_6779_43312)" stroke-opacity="0.3" stroke-width="0.896992"/>
<path d="M684.609 165.161L372.179 -5.13281" stroke="url(#paint11_linear_6779_43312)" stroke-opacity="0.3" stroke-width="0.896992"/>
<path d="M746.138 139.288L433.708 -31.0059" stroke="url(#paint12_linear_6779_43312)" stroke-opacity="0.3" stroke-width="0.896992"/>
<path d="M671.108 216.997L358.678 46.7031" stroke="url(#paint13_linear_6779_43312)" stroke-opacity="0.3" stroke-width="0.896992"/>
<path d="M734.419 207.331L421.989 37.0371" stroke="url(#paint14_linear_6779_43312)" stroke-opacity="0.3" stroke-width="0.896992"/>
<path d="M659.097 193.999L346.667 23.7051" stroke="url(#paint15_linear_6779_43312)" stroke-opacity="0.3" stroke-width="0.896992"/>
<path d="M823.969 237.038L511.539 66.7441" stroke="url(#paint16_linear_6779_43312)" stroke-opacity="0.3" stroke-width="0.896992"/>
<path d="M781.595 145.089L469.166 -25.2051" stroke="url(#paint17_linear_6779_43312)" stroke-opacity="0.3" stroke-width="0.896992"/>
<path d="M746.138 104.154L433.708 -66.1406" stroke="url(#paint18_linear_6779_43312)" stroke-opacity="0.3" stroke-width="0.896992"/>
<path d="M372.179 227.724L684.609 57.4297" stroke="url(#paint19_linear_6779_43312)" stroke-opacity="0.3" stroke-width="0.896992"/>
<path d="M348.897 257.009L661.327 86.7148" stroke="url(#paint20_linear_6779_43312)" stroke-opacity="0.3" stroke-width="0.896992"/>
<path d="M395.999 210.585L708.429 40.291" stroke="url(#paint21_linear_6779_43312)" stroke-opacity="0.3" stroke-width="0.896992"/>
<path d="M390.298 193.089L702.728 22.7949" stroke="url(#paint22_linear_6779_43312)" stroke-opacity="0.3" stroke-width="0.896992"/>
<path d="M364.879 148.046L677.309 -22.248" stroke="url(#paint23_linear_6779_43312)" stroke-opacity="0.3" stroke-width="0.896992"/>
<path d="M316.865 131.851L629.295 -38.4434" stroke="url(#paint24_linear_6779_43312)" stroke-opacity="0.3" stroke-width="0.896992"/>
<path d="M247.496 148.531L559.926 -21.7637" stroke="url(#paint25_linear_6779_43312)" stroke-opacity="0.3" stroke-width="0.896992"/>
<path d="M290.733 117.159L603.163 -53.1348" stroke="url(#paint26_linear_6779_43312)" stroke-opacity="0.3" stroke-width="0.896992"/>
<path d="M385.047 124.195L697.477 -46.0996" stroke="url(#paint27_linear_6779_43312)" stroke-opacity="0.3" stroke-width="0.896992"/>
<path d="M414.767 141.284L727.197 -29.0098" stroke="url(#paint28_linear_6779_43312)" stroke-opacity="0.3" stroke-width="0.896992"/>
<path d="M303.096 225.275L615.526 54.9805" stroke="url(#paint29_linear_6779_43312)" stroke-opacity="0.3" stroke-width="0.896992"/>
<path d="M399.025 192.601L711.455 22.3066" stroke="url(#paint30_linear_6779_43312)" stroke-opacity="0.3" stroke-width="0.896992"/>
<path d="M242.809 138.378L555.239 -31.916" stroke="url(#paint31_linear_6779_43312)" stroke-opacity="0.3" stroke-width="0.896992"/>
<path d="M253.861 177.534L566.291 7.24023" stroke="url(#paint32_linear_6779_43312)" stroke-opacity="0.3" stroke-width="0.896992"/>
<path d="M264.584 192.158L577.014 21.8633" stroke="url(#paint33_linear_6779_43312)" stroke-opacity="0.3" stroke-width="0.896992"/>
<path d="M270.735 209.341L583.165 39.0469" stroke="url(#paint34_linear_6779_43312)" stroke-opacity="0.3" stroke-width="0.896992"/>
<g filter="url(#filter0_f_6779_43312)">
<circle cx="414.802" cy="31.195" r="1.73792" fill="url(#paint35_radial_6779_43312)"/>
<circle cx="414.802" cy="31.195" r="1.6258" stroke="white" stroke-opacity="0.24" stroke-width="0.224248"/>
<g opacity="0.7">
<circle cx="423.63" cy="146.293" r="1.73792" fill="url(#paint36_radial_6779_43312)"/>
<circle cx="423.63" cy="146.293" r="1.6258" stroke="white" stroke-opacity="0.24" stroke-width="0.224248"/>
</g>
<ellipse cx="411.917" cy="59.1697" rx="1.84114" ry="1.73805" fill="url(#paint37_radial_6779_43312)"/>
<path d="M413.646 59.1697C413.646 60.0617 412.878 60.7956 411.917 60.7956C410.956 60.7956 410.188 60.0617 410.188 59.1697C410.188 58.2777 410.956 57.5438 411.917 57.5438C412.878 57.5438 413.646 58.2777 413.646 59.1697Z" stroke="white" stroke-opacity="0.24" stroke-width="0.224248"/>
<ellipse cx="431.868" cy="69.5076" rx="1.84115" ry="1.73805" fill="url(#paint38_radial_6779_43312)"/>
<path d="M433.597 69.5076C433.597 70.3996 432.829 71.1335 431.868 71.1335C430.906 71.1335 430.138 70.3996 430.138 69.5076C430.138 68.6156 430.906 67.8817 431.868 67.8817C432.829 67.8817 433.597 68.6156 433.597 69.5076Z" stroke="white" stroke-opacity="0.24" stroke-width="0.224248"/>
<ellipse cx="512.047" cy="4.21266" rx="1.84115" ry="1.73805" fill="url(#paint39_radial_6779_43312)"/>
<path d="M513.776 4.21266C513.776 5.10464 513.008 5.83859 512.047 5.83859C511.086 5.83859 510.318 5.10464 510.318 4.21266C510.318 3.32069 511.086 2.58673 512.047 2.58673C513.008 2.58673 513.776 3.32069 513.776 4.21266Z" stroke="white" stroke-opacity="0.24" stroke-width="0.224248"/>
<ellipse cx="562.275" cy="60.8728" rx="1.84115" ry="1.73805" fill="url(#paint40_radial_6779_43312)"/>
<path d="M564.004 60.8728C564.004 61.7648 563.236 62.4987 562.275 62.4987C561.314 62.4987 560.546 61.7648 560.546 60.8728C560.546 59.9808 561.314 59.2469 562.275 59.2469C563.236 59.2469 564.004 59.9808 564.004 60.8728Z" stroke="white" stroke-opacity="0.24" stroke-width="0.224248"/>
<ellipse cx="531.522" cy="140.84" rx="1.84112" ry="1.73805" fill="url(#paint41_radial_6779_43312)"/>
<path d="M533.251 140.84C533.251 141.732 532.483 142.466 531.522 142.466C530.561 142.466 529.793 141.732 529.793 140.84C529.793 139.948 530.561 139.214 531.522 139.214C532.483 139.214 533.251 139.948 533.251 140.84Z" stroke="white" stroke-opacity="0.24" stroke-width="0.224248"/>
<ellipse cx="508.614" cy="127.638" rx="1.84112" ry="1.73805" fill="url(#paint42_radial_6779_43312)"/>
<path d="M510.343 127.638C510.343 128.53 509.575 129.264 508.614 129.264C507.653 129.264 506.885 128.53 506.885 127.638C506.885 126.746 507.653 126.013 508.614 126.013C509.575 126.013 510.343 126.746 510.343 127.638Z" stroke="white" stroke-opacity="0.24" stroke-width="0.224248"/>
<ellipse cx="561.767" cy="39.7517" rx="1.84112" ry="1.73805" fill="url(#paint43_radial_6779_43312)"/>
<path d="M563.496 39.7517C563.496 40.6437 562.728 41.3777 561.767 41.3777C560.806 41.3777 560.038 40.6437 560.038 39.7517C560.038 38.8597 560.806 38.1258 561.767 38.1258C562.728 38.1258 563.496 38.8597 563.496 39.7517Z" stroke="white" stroke-opacity="0.24" stroke-width="0.224248"/>
<g opacity="0.7">
<circle cx="569.828" cy="61.6715" r="1.73792" fill="url(#paint44_radial_6779_43312)"/>
<circle cx="569.828" cy="61.6715" r="1.6258" stroke="white" stroke-opacity="0.24" stroke-width="0.224248"/>
</g>
<ellipse cx="521.094" cy="72.697" rx="1.84112" ry="1.73805" fill="url(#paint45_radial_6779_43312)"/>
<path d="M522.823 72.697C522.823 73.589 522.055 74.323 521.094 74.323C520.132 74.323 519.365 73.589 519.365 72.697C519.365 71.8051 520.132 71.0711 521.094 71.0711C522.055 71.0711 522.823 71.8051 522.823 72.697Z" stroke="white" stroke-opacity="0.24" stroke-width="0.224248"/>
<g opacity="0.7">
<circle cx="411.801" cy="44.9586" r="1.73792" fill="url(#paint46_radial_6779_43312)"/>
<circle cx="411.801" cy="44.9586" r="1.6258" stroke="white" stroke-opacity="0.24" stroke-width="0.224248"/>
</g>
<g opacity="0.7">
<circle cx="522.374" cy="108.843" r="1.73792" fill="url(#paint47_radial_6779_43312)"/>
<circle cx="522.374" cy="108.843" r="1.6258" stroke="white" stroke-opacity="0.24" stroke-width="0.224248"/>
</g>
<g opacity="0.7">
<circle cx="365.199" cy="72.6871" r="1.73792" fill="url(#paint48_radial_6779_43312)"/>
<circle cx="365.199" cy="72.6871" r="1.6258" stroke="white" stroke-opacity="0.24" stroke-width="0.224248"/>
</g>
<g opacity="0.7">
<circle cx="359.94" cy="109.668" r="1.73792" fill="url(#paint49_radial_6779_43312)"/>
<circle cx="359.94" cy="109.668" r="1.6258" stroke="white" stroke-opacity="0.24" stroke-width="0.224248"/>
</g>
<g opacity="0.7">
<circle cx="507.442" cy="12.6422" r="1.73792" fill="url(#paint50_radial_6779_43312)"/>
<circle cx="507.442" cy="12.6422" r="1.6258" stroke="white" stroke-opacity="0.24" stroke-width="0.224248"/>
</g>
</g>
<path d="M499.389 23.9404L501.787 25.2473C501.841 25.2768 501.933 25.2512 501.921 25.21L500.751 21.3427C500.737 21.297 500.618 21.294 500.597 21.3388L499.369 23.8992C499.362 23.9139 499.369 23.9296 499.389 23.9404Z" fill="white" stroke="#11B351" stroke-width="0.12514" stroke-linejoin="round"/>
<path d="M501.669 25.3134L499.271 24.0064C499.251 23.9956 499.222 23.9914 499.195 23.9952L494.497 24.6646C494.415 24.6763 494.421 24.7409 494.504 24.7484L501.601 25.386C501.676 25.3928 501.723 25.3429 501.669 25.3134Z" fill="white" stroke="#11B351" stroke-width="0.12514" stroke-linejoin="round"/>
<path d="M495.218 21.6637L498.439 23.4187C498.481 23.442 498.554 23.4315 498.57 23.3997L499.917 20.6966C499.934 20.6627 499.873 20.6328 499.813 20.6452L495.246 21.5933C495.193 21.6044 495.178 21.6417 495.218 21.6637Z" fill="white" stroke="#11B351" stroke-width="0.12514" stroke-linejoin="round"/>
<path d="M498.317 23.4865L495.096 21.7315C495.056 21.7095 494.987 21.7175 494.967 21.7466L493.227 24.2356C493.204 24.2683 493.259 24.3014 493.322 24.2922L498.282 23.5583C498.34 23.5496 498.359 23.5098 498.317 23.4865Z" fill="white" stroke="#11B351" stroke-width="0.12514" stroke-linejoin="round"/>
<path d="M499.557 20.5226L491.409 19.4752C491.332 19.4653 491.279 19.5167 491.335 19.5472L494.974 21.5306C494.996 21.5425 495.029 21.5463 495.058 21.5403L499.567 20.6044C499.639 20.5893 499.632 20.5323 499.557 20.5226Z" fill="white" stroke="#11B351" stroke-width="0.12514" stroke-linejoin="round"/>
<path d="M491.08 19.6533L493.002 24.0937C493.02 24.1349 493.125 24.1386 493.152 24.0991L494.87 21.642C494.881 21.6262 494.874 21.6084 494.852 21.5964L491.213 19.6131C491.157 19.5825 491.062 19.6112 491.08 19.6533Z" fill="white" stroke="#11B351" stroke-width="0.12514" stroke-linejoin="round"/>
<path d="M487.33 47.8432L487.33 47.9926L487.878 47.9926L487.878 47.8432L487.33 47.8432ZM501.79 18.7654C501.76 18.6845 501.616 18.6321 501.467 18.6484C501.319 18.6646 501.223 18.7434 501.252 18.8243L501.79 18.7654ZM487.604 27.8135L487.878 27.8135L487.604 27.8135ZM487.659 27.7421L487.851 27.8491L487.659 27.7421ZM504.187 26.7154L504.235 26.5683L504.187 26.7154ZM504.398 26.5977L504.129 26.6271L504.398 26.5977ZM491.927 25.5343L491.974 25.3871L491.927 25.5343ZM491.767 25.561L491.576 25.454L491.767 25.561ZM491.879 25.6814L504.139 26.8626L504.235 26.5683L491.974 25.3871L491.879 25.6814ZM504.667 26.5683L501.79 18.7654L501.252 18.8243L504.129 26.6271L504.667 26.5683ZM487.878 47.8432L487.878 27.8135L487.33 27.8135L487.33 47.8432L487.878 47.8432ZM487.851 27.8491L491.959 25.6681L491.576 25.454L487.468 27.635L487.851 27.8491ZM487.878 27.8135C487.878 27.8269 487.868 27.8398 487.851 27.8491L487.468 27.635C487.38 27.6819 487.33 27.7463 487.33 27.8135L487.878 27.8135ZM504.139 26.8626C504.456 26.8931 504.73 26.7403 504.667 26.5683L504.129 26.6271C504.116 26.5927 504.171 26.5622 504.235 26.5683L504.139 26.8626ZM491.974 25.3871C491.83 25.3732 491.681 25.398 491.576 25.454L491.959 25.6681C491.938 25.6792 491.908 25.6842 491.879 25.6814L491.974 25.3871Z" fill="white"/>
</g>
<defs>
<filter id="filter0_f_6779_43312" x="356.408" y="-23.5596" width="266.528" height="173.385" filterUnits="userSpaceOnUse" color-interpolation-filters="sRGB">
<feFlood flood-opacity="0" result="BackgroundImageFix"/>
<feBlend mode="normal" in="SourceGraphic" in2="BackgroundImageFix" result="shape"/>
<feGaussianBlur stdDeviation="0.896992" result="effect1_foregroundBlur_6779_43312"/>
</filter>
<radialGradient id="paint0_radial_6779_43312" cx="0" cy="0" r="1" gradientUnits="userSpaceOnUse" gradientTransform="translate(506.206 62.8772) rotate(176.384) scale(284.507 207.064)">
<stop stop-color="#25E270" stop-opacity="0.3"/>
<stop offset="1" stop-color="#031C1E" stop-opacity="0"/>
</radialGradient>
<radialGradient id="paint1_radial_6779_43312" cx="0" cy="0" r="1" gradientUnits="userSpaceOnUse" gradientTransform="translate(385.654 45.6243) rotate(173.909) scale(147.399 179.853)">
<stop stop-color="#25E270" stop-opacity="0.3"/>
<stop offset="1" stop-color="#031C1E" stop-opacity="0"/>
</radialGradient>
<radialGradient id="paint2_radial_6779_43312" cx="0" cy="0" r="1" gradientUnits="userSpaceOnUse" gradientTransform="translate(654.496 -13.4363) rotate(173.909) scale(147.399 179.853)">
<stop stop-color="#25E270" stop-opacity="0.3"/>
<stop offset="1" stop-color="#031C1E" stop-opacity="0"/>
</radialGradient>
<radialGradient id="paint3_radial_6779_43312" cx="0" cy="0" r="1" gradientUnits="userSpaceOnUse" gradientTransform="translate(478.847 129.145) rotate(90) scale(42.861 45.3385)">
<stop stop-color="#25E270"/>
<stop offset="1" stop-color="#031C1E" stop-opacity="0"/>
</radialGradient>
<radialGradient id="paint4_radial_6779_43312" cx="0" cy="0" r="1" gradientUnits="userSpaceOnUse" gradientTransform="translate(585.448 87.2834) rotate(90) scale(42.861 45.3385)">
<stop stop-color="#25E270"/>
<stop offset="1" stop-color="#031C1E" stop-opacity="0"/>
</radialGradient>
<radialGradient id="paint5_radial_6779_43312" cx="0" cy="0" r="1" gradientUnits="userSpaceOnUse" gradientTransform="translate(594.755 22.8752) rotate(90) scale(42.861 45.3384)">
<stop stop-color="#25E270"/>
<stop offset="1" stop-color="#031C1E" stop-opacity="0"/>
</radialGradient>
<radialGradient id="paint6_radial_6779_43312" cx="0" cy="0" r="1" gradientUnits="userSpaceOnUse" gradientTransform="translate(416.929 89.1291) rotate(90) scale(42.861 45.3385)">
<stop stop-color="#25E270"/>
<stop offset="1" stop-color="#031C1E" stop-opacity="0"/>
</radialGradient>
<radialGradient id="paint7_radial_6779_43312" cx="0" cy="0" r="1" gradientUnits="userSpaceOnUse" gradientTransform="translate(481.102 70.1293) rotate(90) scale(57.897 61.2435)">
<stop stop-color="#25E270"/>
<stop offset="1" stop-color="#031C1E" stop-opacity="0"/>
</radialGradient>
<radialGradient id="paint8_radial_6779_43312" cx="0" cy="0" r="1" gradientUnits="userSpaceOnUse" gradientTransform="translate(496.173 5.90462) rotate(90) scale(124.886 132.104)">
<stop stop-color="#25E270"/>
<stop offset="1" stop-color="#031C1E" stop-opacity="0"/>
</radialGradient>
<linearGradient id="paint9_linear_6779_43312" x1="317.578" y1="74.9336" x2="630.002" y2="74.923" gradientUnits="userSpaceOnUse">
<stop stop-color="white"/>
<stop offset="1" stop-color="white" stop-opacity="0"/>
</linearGradient>
<linearGradient id="paint10_linear_6779_43312" x1="314.618" y1="33.4414" x2="627.042" y2="33.4309" gradientUnits="userSpaceOnUse">
<stop stop-color="white"/>
<stop offset="1" stop-color="white" stop-opacity="0"/>
</linearGradient>
<linearGradient id="paint11_linear_6779_43312" x1="372.179" y1="-4.63281" x2="684.603" y2="-4.64336" gradientUnits="userSpaceOnUse">
<stop stop-color="white"/>
<stop offset="1" stop-color="white" stop-opacity="0"/>
</linearGradient>
<linearGradient id="paint12_linear_6779_43312" x1="433.709" y1="-30.5059" x2="746.133" y2="-30.5164" gradientUnits="userSpaceOnUse">
<stop stop-color="white"/>
<stop offset="1" stop-color="white" stop-opacity="0"/>
</linearGradient>
<linearGradient id="paint13_linear_6779_43312" x1="358.678" y1="47.2031" x2="671.102" y2="47.1926" gradientUnits="userSpaceOnUse">
<stop stop-color="white"/>
<stop offset="1" stop-color="white" stop-opacity="0"/>
</linearGradient>
<linearGradient id="paint14_linear_6779_43312" x1="421.989" y1="37.5371" x2="734.413" y2="37.5266" gradientUnits="userSpaceOnUse">
<stop stop-color="white"/>
<stop offset="1" stop-color="white" stop-opacity="0"/>
</linearGradient>
<linearGradient id="paint15_linear_6779_43312" x1="346.667" y1="24.2051" x2="659.092" y2="24.1945" gradientUnits="userSpaceOnUse">
<stop stop-color="white"/>
<stop offset="1" stop-color="white" stop-opacity="0"/>
</linearGradient>
<linearGradient id="paint16_linear_6779_43312" x1="511.539" y1="67.2441" x2="823.963" y2="67.2336" gradientUnits="userSpaceOnUse">
<stop stop-color="white"/>
<stop offset="1" stop-color="white" stop-opacity="0"/>
</linearGradient>
<linearGradient id="paint17_linear_6779_43312" x1="469.166" y1="-24.7051" x2="781.59" y2="-24.7156" gradientUnits="userSpaceOnUse">
<stop stop-color="white"/>
<stop offset="1" stop-color="white" stop-opacity="0"/>
</linearGradient>
<linearGradient id="paint18_linear_6779_43312" x1="433.709" y1="-65.6406" x2="746.133" y2="-65.6512" gradientUnits="userSpaceOnUse">
<stop stop-color="white"/>
<stop offset="1" stop-color="white" stop-opacity="0"/>
</linearGradient>
<linearGradient id="paint19_linear_6779_43312" x1="684.609" y1="57.9297" x2="372.185" y2="57.9191" gradientUnits="userSpaceOnUse">
<stop stop-color="white"/>
<stop offset="1" stop-color="white" stop-opacity="0"/>
</linearGradient>
<linearGradient id="paint20_linear_6779_43312" x1="661.327" y1="87.2148" x2="348.903" y2="87.2043" gradientUnits="userSpaceOnUse">
<stop stop-color="white"/>
<stop offset="1" stop-color="white" stop-opacity="0"/>
</linearGradient>
<linearGradient id="paint21_linear_6779_43312" x1="708.429" y1="40.791" x2="396.005" y2="40.7805" gradientUnits="userSpaceOnUse">
<stop stop-color="white"/>
<stop offset="1" stop-color="white" stop-opacity="0"/>
</linearGradient>
<linearGradient id="paint22_linear_6779_43312" x1="702.728" y1="23.2949" x2="390.304" y2="23.2844" gradientUnits="userSpaceOnUse">
<stop stop-color="white"/>
<stop offset="1" stop-color="white" stop-opacity="0"/>
</linearGradient>
<linearGradient id="paint23_linear_6779_43312" x1="677.309" y1="-21.748" x2="364.884" y2="-21.7586" gradientUnits="userSpaceOnUse">
<stop stop-color="white"/>
<stop offset="1" stop-color="white" stop-opacity="0"/>
</linearGradient>
<linearGradient id="paint24_linear_6779_43312" x1="629.295" y1="-37.9434" x2="316.871" y2="-37.9539" gradientUnits="userSpaceOnUse">
<stop stop-color="white"/>
<stop offset="1" stop-color="white" stop-opacity="0"/>
</linearGradient>
<linearGradient id="paint25_linear_6779_43312" x1="559.926" y1="-21.2637" x2="247.502" y2="-21.2742" gradientUnits="userSpaceOnUse">
<stop stop-color="white"/>
<stop offset="1" stop-color="white" stop-opacity="0"/>
</linearGradient>
<linearGradient id="paint26_linear_6779_43312" x1="603.163" y1="-52.6348" x2="290.739" y2="-52.6453" gradientUnits="userSpaceOnUse">
<stop stop-color="white"/>
<stop offset="1" stop-color="white" stop-opacity="0"/>
</linearGradient>
<linearGradient id="paint27_linear_6779_43312" x1="697.477" y1="-45.5996" x2="385.053" y2="-45.6102" gradientUnits="userSpaceOnUse">
<stop stop-color="white"/>
<stop offset="1" stop-color="white" stop-opacity="0"/>
</linearGradient>
<linearGradient id="paint28_linear_6779_43312" x1="727.197" y1="-28.5098" x2="414.773" y2="-28.5203" gradientUnits="userSpaceOnUse">
<stop stop-color="white"/>
<stop offset="1" stop-color="white" stop-opacity="0"/>
</linearGradient>
<linearGradient id="paint29_linear_6779_43312" x1="615.526" y1="55.4805" x2="303.102" y2="55.4699" gradientUnits="userSpaceOnUse">
<stop stop-color="white"/>
<stop offset="1" stop-color="white" stop-opacity="0"/>
</linearGradient>
<linearGradient id="paint30_linear_6779_43312" x1="711.455" y1="22.8066" x2="399.03" y2="22.7961" gradientUnits="userSpaceOnUse">
<stop stop-color="white"/>
<stop offset="1" stop-color="white" stop-opacity="0"/>
</linearGradient>
<linearGradient id="paint31_linear_6779_43312" x1="555.239" y1="-31.416" x2="242.815" y2="-31.4266" gradientUnits="userSpaceOnUse">
<stop stop-color="white"/>
<stop offset="1" stop-color="white" stop-opacity="0"/>
</linearGradient>
<linearGradient id="paint32_linear_6779_43312" x1="566.291" y1="7.74023" x2="253.867" y2="7.72969" gradientUnits="userSpaceOnUse">
<stop stop-color="white"/>
<stop offset="1" stop-color="white" stop-opacity="0"/>
</linearGradient>
<linearGradient id="paint33_linear_6779_43312" x1="577.014" y1="22.3633" x2="264.589" y2="22.3527" gradientUnits="userSpaceOnUse">
<stop stop-color="white"/>
<stop offset="1" stop-color="white" stop-opacity="0"/>
</linearGradient>
<linearGradient id="paint34_linear_6779_43312" x1="583.165" y1="39.5469" x2="270.741" y2="39.5363" gradientUnits="userSpaceOnUse">
<stop stop-color="white"/>
<stop offset="1" stop-color="white" stop-opacity="0"/>
</linearGradient>
<radialGradient id="paint35_radial_6779_43312" cx="0" cy="0" r="1" gradientUnits="userSpaceOnUse" gradientTransform="translate(414.802 31.195) rotate(90) scale(1.73792)">
<stop stop-color="#6CE8AB"/>
<stop offset="0.638298" stop-color="#6CE8AB"/>
<stop offset="1" stop-color="#6CE8AB" stop-opacity="0"/>
</radialGradient>
<radialGradient id="paint36_radial_6779_43312" cx="0" cy="0" r="1" gradientUnits="userSpaceOnUse" gradientTransform="translate(423.63 146.293) rotate(90) scale(1.73792)">
<stop stop-color="#6CE8AB"/>
<stop offset="0.638298" stop-color="#6CE8AB"/>
<stop offset="1" stop-color="#6CE8AB" stop-opacity="0"/>
</radialGradient>
<radialGradient id="paint37_radial_6779_43312" cx="0" cy="0" r="1" gradientUnits="userSpaceOnUse" gradientTransform="translate(411.917 59.1697) rotate(90) scale(1.73805 1.84114)">
<stop stop-color="#6CE8AB"/>
<stop offset="0.638298" stop-color="#6CE8AB"/>
<stop offset="1" stop-color="#6CE8AB" stop-opacity="0"/>
</radialGradient>
<radialGradient id="paint38_radial_6779_43312" cx="0" cy="0" r="1" gradientUnits="userSpaceOnUse" gradientTransform="translate(431.868 69.5076) rotate(90) scale(1.73805 1.84115)">
<stop stop-color="#6CE8AB"/>
<stop offset="0.638298" stop-color="#6CE8AB"/>
<stop offset="1" stop-color="#6CE8AB" stop-opacity="0"/>
</radialGradient>
<radialGradient id="paint39_radial_6779_43312" cx="0" cy="0" r="1" gradientUnits="userSpaceOnUse" gradientTransform="translate(512.047 4.21266) rotate(90) scale(1.73805 1.84115)">
<stop stop-color="#6CE8AB"/>
<stop offset="0.638298" stop-color="#6CE8AB"/>
<stop offset="1" stop-color="#6CE8AB" stop-opacity="0"/>
</radialGradient>
<radialGradient id="paint40_radial_6779_43312" cx="0" cy="0" r="1" gradientUnits="userSpaceOnUse" gradientTransform="translate(562.275 60.8728) rotate(90) scale(1.73805 1.84115)">
<stop stop-color="#6CE8AB"/>
<stop offset="0.638298" stop-color="#6CE8AB"/>
<stop offset="1" stop-color="#6CE8AB" stop-opacity="0"/>
</radialGradient>
<radialGradient id="paint41_radial_6779_43312" cx="0" cy="0" r="1" gradientUnits="userSpaceOnUse" gradientTransform="translate(531.522 140.84) rotate(90) scale(1.73805 1.84112)">
<stop stop-color="#6CE8AB"/>
<stop offset="0.638298" stop-color="#6CE8AB"/>
<stop offset="1" stop-color="#6CE8AB" stop-opacity="0"/>
</radialGradient>
<radialGradient id="paint42_radial_6779_43312" cx="0" cy="0" r="1" gradientUnits="userSpaceOnUse" gradientTransform="translate(508.614 127.638) rotate(90) scale(1.73805 1.84112)">
<stop stop-color="#6CE8AB"/>
<stop offset="0.638298" stop-color="#6CE8AB"/>
<stop offset="1" stop-color="#6CE8AB" stop-opacity="0"/>
</radialGradient>
<radialGradient id="paint43_radial_6779_43312" cx="0" cy="0" r="1" gradientUnits="userSpaceOnUse" gradientTransform="translate(561.767 39.7517) rotate(90) scale(1.73805 1.84112)">
<stop stop-color="#6CE8AB"/>
<stop offset="0.638298" stop-color="#6CE8AB"/>
<stop offset="1" stop-color="#6CE8AB" stop-opacity="0"/>
</radialGradient>
<radialGradient id="paint44_radial_6779_43312" cx="0" cy="0" r="1" gradientUnits="userSpaceOnUse" gradientTransform="translate(569.828 61.6715) rotate(90) scale(1.73792)">
<stop stop-color="#6CE8AB"/>
<stop offset="0.638298" stop-color="#6CE8AB"/>
<stop offset="1" stop-color="#6CE8AB" stop-opacity="0"/>
</radialGradient>
<radialGradient id="paint45_radial_6779_43312" cx="0" cy="0" r="1" gradientUnits="userSpaceOnUse" gradientTransform="translate(521.094 72.697) rotate(90) scale(1.73805 1.84112)">
<stop stop-color="#6CE8AB"/>
<stop offset="0.638298" stop-color="#6CE8AB"/>
<stop offset="1" stop-color="#6CE8AB" stop-opacity="0"/>
</radialGradient>
<radialGradient id="paint46_radial_6779_43312" cx="0" cy="0" r="1" gradientUnits="userSpaceOnUse" gradientTransform="translate(411.801 44.9586) rotate(90) scale(1.73792)">
<stop stop-color="#6CE8AB"/>
<stop offset="0.638298" stop-color="#6CE8AB"/>
<stop offset="1" stop-color="#6CE8AB" stop-opacity="0"/>
</radialGradient>
<radialGradient id="paint47_radial_6779_43312" cx="0" cy="0" r="1" gradientUnits="userSpaceOnUse" gradientTransform="translate(522.374 108.843) rotate(90) scale(1.73792)">
<stop stop-color="#6CE8AB"/>
<stop offset="0.638298" stop-color="#6CE8AB"/>
<stop offset="1" stop-color="#6CE8AB" stop-opacity="0"/>
</radialGradient>
<radialGradient id="paint48_radial_6779_43312" cx="0" cy="0" r="1" gradientUnits="userSpaceOnUse" gradientTransform="translate(365.199 72.6871) rotate(90) scale(1.73792)">
<stop stop-color="#6CE8AB"/>
<stop offset="0.638298" stop-color="#6CE8AB"/>
<stop offset="1" stop-color="#6CE8AB" stop-opacity="0"/>
</radialGradient>
<radialGradient id="paint49_radial_6779_43312" cx="0" cy="0" r="1" gradientUnits="userSpaceOnUse" gradientTransform="translate(359.94 109.668) rotate(90) scale(1.73792)">
<stop stop-color="#6CE8AB"/>
<stop offset="0.638298" stop-color="#6CE8AB"/>
<stop offset="1" stop-color="#6CE8AB" stop-opacity="0"/>
</radialGradient>
<radialGradient id="paint50_radial_6779_43312" cx="0" cy="0" r="1" gradientUnits="userSpaceOnUse" gradientTransform="translate(507.442 12.6422) rotate(90) scale(1.73792)">
<stop stop-color="#6CE8AB"/>
<stop offset="0.638298" stop-color="#6CE8AB"/>
<stop offset="1" stop-color="#6CE8AB" stop-opacity="0"/>
</radialGradient>
<clipPath id="clip0_6779_43312">
<rect width="984" height="366" fill="white" transform="translate(0 -69)"/>
</clipPath>
</defs>
</svg>
