<svg width="128" height="128" viewBox="0 0 128 128" fill="none" xmlns="http://www.w3.org/2000/svg">
<rect x="0.109375" y="0.668823" width="127" height="127" rx="25" fill="#03181E"/>
<mask id="mask0_1684_5569" style="mask-type:alpha" maskUnits="userSpaceOnUse" x="0" y="0" width="128" height="128">
<rect x="0.109375" y="0.668823" width="127" height="127" rx="25" fill="#03181E"/>
</mask>
<g mask="url(#mask0_1684_5569)">
<path d="M87.7571 84.2615C87.7571 84.5242 88.0941 84.6325 88.2471 84.419L102.149 65.0278C102.319 64.7906 102.045 64.4896 101.793 64.637L87.8909 72.7765C87.808 72.825 87.7571 72.9138 87.7571 73.0098V84.2615Z" fill="#00DD58" stroke="#03181E" stroke-width="0.541401" stroke-linejoin="round"/>
<path d="M86.6924 84.419C86.8455 84.6325 87.1824 84.5242 87.1824 84.2615V73.0098C87.1824 72.9138 87.1315 72.825 87.0487 72.7765L73.1465 64.637C72.8947 64.4896 72.6202 64.7906 72.7903 65.0278L86.6924 84.419Z" fill="#5EF399" stroke="#03181E" stroke-width="0.541401" stroke-linejoin="round"/>
<path d="M87.7765 68.473C87.7765 68.6806 88.0009 68.8108 88.1812 68.7075L103.002 60.2167C103.194 60.1068 103.18 59.8258 102.978 59.7355L88.1574 53.091C87.9785 53.0109 87.7765 53.1417 87.7765 53.3377V68.473Z" fill="#04B94C" stroke="#03181E" stroke-width="0.541401" stroke-linejoin="round"/>
<path d="M86.7777 68.7075C86.9579 68.8108 87.1824 68.6806 87.1824 68.473V53.3377C87.1824 53.1417 86.9804 53.0109 86.8015 53.091L71.9808 59.7355C71.7792 59.8258 71.7653 60.1068 71.957 60.2167L86.7777 68.7075Z" fill="#1EDC6A" stroke="#03181E" stroke-width="0.541401" stroke-linejoin="round"/>
<path d="M102.561 58.9555C102.804 59.0645 103.041 58.7933 102.901 58.5667L88.2767 34.9135C88.1336 34.6819 87.7765 34.7834 87.7765 35.0556V52.1523C87.7765 52.2589 87.8391 52.3554 87.9362 52.399L102.561 58.9555Z" fill="#00DD58" stroke="#03181E" stroke-width="0.541401" stroke-linejoin="round"/>
<path d="M72.0576 58.5668C71.9175 58.7934 72.155 59.0646 72.3981 58.9556L87.0227 52.3991C87.1199 52.3555 87.1824 52.2589 87.1824 52.1524V35.0557C87.1824 34.7834 86.8254 34.682 86.6822 34.9135L72.0576 58.5668Z" fill="#5EF399" stroke="#03181E" stroke-width="0.541401" stroke-linejoin="round"/>
<path d="M-14.9336 61.094H-15.8755V62.9778H-14.9336V61.094ZM115.835 56.2783C116.123 55.8452 116.006 55.2605 115.572 54.9723C115.139 54.6841 114.555 54.8016 114.267 55.2347L115.835 56.2783ZM87.0507 96.2897L87.8225 95.7498L87.0507 96.2897ZM88.088 96.2776L88.8722 96.7994L88.088 96.2776ZM63.2759 62.3039L62.5041 62.8438L63.2759 62.3039ZM-14.9336 62.9778H62.7613V61.094H-14.9336V62.9778ZM62.5041 62.8438L86.2788 96.8296L87.8225 95.7498L64.0477 61.764L62.5041 62.8438ZM88.8722 96.7994L115.835 56.2783L114.267 55.2347L87.3038 95.7558L88.8722 96.7994ZM86.2788 96.8296C86.9127 97.7356 88.2596 97.72 88.8722 96.7994L87.3038 95.7558C87.4263 95.5717 87.6957 95.5685 87.8225 95.7498L86.2788 96.8296ZM62.7613 62.9778C62.6588 62.9778 62.5628 62.9278 62.5041 62.8438L64.0477 61.764C63.7539 61.3441 63.2738 61.094 62.7613 61.094V62.9778Z" fill="url(#paint0_linear_1684_5569)"/>
</g>
<defs>
<linearGradient id="paint0_linear_1684_5569" x1="-14.9336" y1="55.7565" x2="45.506" y2="55.7565" gradientUnits="userSpaceOnUse">
<stop stop-color="#00DD58" stop-opacity="0"/>
<stop offset="0.7" stop-color="#00DD58"/>
</linearGradient>
</defs>
</svg>
